<?xml version="1.0" encoding="UTF-8"?>
<svg version="1.1" xmlns="http://www.w3.org/2000/svg" width="333" height="124">
<path d="M0 0 C109.89 0 219.78 0 333 0 C333 40.92 333 81.84 333 124 C223.11 124 113.22 124 0 124 C0 83.08 0 42.16 0 0 Z " fill="#FEFEFE" transform="translate(0,0)"/>
<path d="M0 0 C0.73202637 0.34836914 1.46405273 0.69673828 2.21826172 1.05566406 C13.48811968 6.47528332 24.51935427 12.35927387 35.375 18.5625 C35.375 37.0425 35.375 55.5225 35.375 74.5625 C15.92988782 84.85697115 15.92988782 84.85697115 6.1171875 89.6953125 C3.6786255 90.90017527 1.28324651 92.14623397 -1.1171875 93.4296875 C-2.17164063 93.98914063 -3.22609375 94.54859375 -4.3125 95.125 C-5.67955078 95.86943359 -5.67955078 95.86943359 -7.07421875 96.62890625 C-10.71633659 97.96193253 -13.29114967 97.11746207 -16.81402588 95.6517334 C-17.91203522 95.09999451 -17.91203522 95.09999451 -19.03222656 94.53710938 C-20.28812592 93.91141052 -20.28812592 93.91141052 -21.56939697 93.27307129 C-22.90402985 92.59649475 -22.90402985 92.59649475 -24.265625 91.90625 C-25.18841248 91.44391968 -26.11119995 90.98158936 -27.06195068 90.50524902 C-29.00657818 89.52958041 -30.94976695 88.55103962 -32.89160156 87.56982422 C-35.87515013 86.06242415 -38.8629186 84.56367461 -41.8515625 83.06640625 C-43.73983447 82.11768718 -45.6278639 81.16848519 -47.515625 80.21875 C-48.86240326 79.54217346 -48.86240326 79.54217346 -50.23638916 78.85192871 C-51.47337555 78.22622986 -51.47337555 78.22622986 -52.73535156 77.58789062 C-53.46417542 77.2200647 -54.19299927 76.85223877 -54.94390869 76.4732666 C-56.625 75.5625 -56.625 75.5625 -57.625 74.5625 C-57.71865006 72.8132128 -57.74244438 71.06013746 -57.73852539 69.30834961 C-57.73844986 68.18726303 -57.73837433 67.06617645 -57.73829651 65.91111755 C-57.73313522 64.6913472 -57.72797394 63.47157684 -57.72265625 62.21484375 C-57.7212413 60.97328018 -57.71982635 59.73171661 -57.71836853 58.45252991 C-57.71370591 55.14644509 -57.70471497 51.84042854 -57.69366455 48.53436279 C-57.68344827 45.1628885 -57.67887045 41.79140717 -57.67382812 38.41992188 C-57.66277395 31.80076225 -57.64601736 25.18163507 -57.625 18.5625 C-51.29478854 15.2232206 -44.9614626 11.88990269 -38.625 8.5625 C-37.94312622 8.2043219 -37.26125244 7.8461438 -36.55871582 7.47711182 C-32.6345133 5.41912856 -28.69582175 3.39116593 -24.75 1.375 C-23.63753906 0.79169922 -22.52507812 0.20839844 -21.37890625 -0.39257812 C-20.30769531 -0.93720703 -19.23648438 -1.48183594 -18.1328125 -2.04296875 C-17.19066895 -2.52918701 -16.24852539 -3.01540527 -15.27783203 -3.51635742 C-9.73184072 -5.44209138 -4.99621542 -2.40365362 0 0 Z " fill="#6A6A4B" transform="translate(99.625,20.4375)"/>
<path d="M0 0 C2.49023438 1.51367188 2.49023438 1.51367188 4.98046875 3.02734375 C4.79296875 5.33984375 4.79296875 5.33984375 3.98046875 8.02734375 C1.41796875 9.83984375 1.41796875 9.83984375 -1.01953125 11.02734375 C-0.52453125 13.50234375 -0.52453125 13.50234375 -0.01953125 16.02734375 C-6.89453125 15.15234375 -6.89453125 15.15234375 -8.01953125 14.02734375 C-9.36700209 13.79659293 -10.7233069 13.61581312 -12.08203125 13.46484375 C-13.38140625 13.32046875 -14.68078125 13.17609375 -16.01953125 13.02734375 C-15.14453125 8.15234375 -15.14453125 8.15234375 -14.01953125 7.02734375 C-12.3533601 6.98670543 -10.6856503 6.98462275 -9.01953125 7.02734375 C-9.01953125 7.68734375 -9.01953125 8.34734375 -9.01953125 9.02734375 C-10.33953125 9.35734375 -11.65953125 9.68734375 -13.01953125 10.02734375 C-13.01953125 10.68734375 -13.01953125 11.34734375 -13.01953125 12.02734375 C-11.03953125 11.03734375 -9.05953125 10.04734375 -7.01953125 9.02734375 C-7.01953125 8.03734375 -7.01953125 7.04734375 -7.01953125 6.02734375 C-12.69229636 5.73392487 -16.01020371 6.02174723 -21.01953125 9.02734375 C-20.02953125 9.68734375 -19.03953125 10.34734375 -18.01953125 11.02734375 C-19.27430096 14.79165288 -20.71375743 15.07778483 -24.01953125 17.02734375 C-24.01953125 17.68734375 -24.01953125 18.34734375 -24.01953125 19.02734375 C-26.98953125 18.36734375 -29.95953125 17.70734375 -33.01953125 17.02734375 C-32.68953125 17.68734375 -32.35953125 18.34734375 -32.01953125 19.02734375 C-29.96021593 19.45695596 -29.96021593 19.45695596 -27.58203125 19.58984375 C-23.20619792 19.93401042 -23.20619792 19.93401042 -21.01953125 21.02734375 C-22.01953125 24.02734375 -22.01953125 24.02734375 -25.01953125 26.02734375 C-25.34953125 27.01734375 -25.67953125 28.00734375 -26.01953125 29.02734375 C-29.3965875 28.4900848 -32.71621725 27.91669752 -36.01953125 27.02734375 C-35.35953125 28.01734375 -34.69953125 29.00734375 -34.01953125 30.02734375 C-34.01953125 31.01734375 -34.01953125 32.00734375 -34.01953125 33.02734375 C-37.42265863 31.96859301 -40.03306356 31.01832221 -43.01953125 29.02734375 C-43.01953125 31.00734375 -43.01953125 32.98734375 -43.01953125 35.02734375 C-44.00953125 34.69734375 -44.99953125 34.36734375 -46.01953125 34.02734375 C-46.01953125 32.70734375 -46.01953125 31.38734375 -46.01953125 30.02734375 C-46.67953125 30.02734375 -47.33953125 30.02734375 -48.01953125 30.02734375 C-48.01953125 32.33734375 -48.01953125 34.64734375 -48.01953125 37.02734375 C-47.11203125 37.31609375 -46.20453125 37.60484375 -45.26953125 37.90234375 C-42.69750217 38.79266151 -40.40606359 39.74228788 -38.01953125 41.02734375 C-37.52453125 38.05734375 -37.52453125 38.05734375 -37.01953125 35.02734375 C-35.03953125 35.68734375 -33.05953125 36.34734375 -31.01953125 37.02734375 C-30.68953125 36.36734375 -30.35953125 35.70734375 -30.01953125 35.02734375 C-28.53453125 35.52234375 -28.53453125 35.52234375 -27.01953125 36.02734375 C-26.68953125 35.36734375 -26.35953125 34.70734375 -26.01953125 34.02734375 C-24.53453125 34.52234375 -24.53453125 34.52234375 -23.01953125 35.02734375 C-23.01953125 36.34734375 -23.01953125 37.66734375 -23.01953125 39.02734375 C-22.35953125 39.02734375 -21.69953125 39.02734375 -21.01953125 39.02734375 C-20.68953125 38.36734375 -20.35953125 37.70734375 -20.01953125 37.02734375 C-17.04759275 38.15186102 -14.68512438 39.25028166 -12.01953125 41.02734375 C-12.68619792 43.02734375 -13.35286458 45.02734375 -14.01953125 47.02734375 C-13.02953125 46.36734375 -12.03953125 45.70734375 -11.01953125 45.02734375 C-10.02953125 45.02734375 -9.03953125 45.02734375 -8.01953125 45.02734375 C-7.52453125 44.03734375 -7.52453125 44.03734375 -7.01953125 43.02734375 C-5.02381802 42.34795201 -3.02358352 41.68172816 -1.01953125 41.02734375 C1.03317338 39.18545763 1.03317338 39.18545763 1.98046875 37.02734375 C4.3090174 36.66208122 6.64345837 36.33383691 8.98046875 36.02734375 C10.99463437 35.40478347 13.00062394 34.75167722 14.98046875 34.02734375 C15.31046875 34.68734375 15.64046875 35.34734375 15.98046875 36.02734375 C16.41359375 35.24359375 16.84671875 34.45984375 17.29296875 33.65234375 C18.98046875 31.02734375 18.98046875 31.02734375 21.98046875 29.02734375 C21.98046875 28.36734375 21.98046875 27.70734375 21.98046875 27.02734375 C23.52734375 26.84171875 23.52734375 26.84171875 25.10546875 26.65234375 C28.60163721 26.08844561 31.66444502 25.24052316 34.98046875 24.02734375 C35.47546875 25.01734375 35.47546875 25.01734375 35.98046875 26.02734375 C36.64046875 26.02734375 37.30046875 26.02734375 37.98046875 26.02734375 C39.98046875 28.02734375 39.98046875 28.02734375 40.10546875 31.65234375 C40.06421875 32.76609375 40.02296875 33.87984375 39.98046875 35.02734375 C38.33046875 35.68734375 36.68046875 36.34734375 34.98046875 37.02734375 C34.98046875 38.67734375 34.98046875 40.32734375 34.98046875 42.02734375 C33.99046875 42.02734375 33.00046875 42.02734375 31.98046875 42.02734375 C31.89796875 42.81109375 31.81546875 43.59484375 31.73046875 44.40234375 C31.35921875 45.70171875 31.35921875 45.70171875 30.98046875 47.02734375 C29.66399756 47.72671907 28.33024724 48.39463508 26.98046875 49.02734375 C26.61884846 50.3532848 26.28318836 51.68672832 25.98046875 53.02734375 C24.49546875 53.52234375 24.49546875 53.52234375 22.98046875 54.02734375 C22.98046875 50.72734375 22.98046875 47.42734375 22.98046875 44.02734375 C21.99046875 44.52234375 21.99046875 44.52234375 20.98046875 45.02734375 C20.81546875 45.68734375 20.65046875 46.34734375 20.48046875 47.02734375 C20.31546875 47.68734375 20.15046875 48.34734375 19.98046875 49.02734375 C18.99046875 49.52234375 18.99046875 49.52234375 17.98046875 50.02734375 C17.69171875 50.85234375 17.40296875 51.67734375 17.10546875 52.52734375 C15.98046875 55.02734375 15.98046875 55.02734375 13.85546875 55.83984375 C12.92734375 55.93265625 12.92734375 55.93265625 11.98046875 56.02734375 C11.98046875 55.03734375 11.98046875 54.04734375 11.98046875 53.02734375 C9.335943 53.73938616 9.335943 53.73938616 6.98046875 56.02734375 C6.21484758 59.68291524 6.05009508 63.29917028 5.98046875 67.02734375 C3.01046875 68.01734375 3.01046875 68.01734375 -0.01953125 69.02734375 C-0.01953125 67.70734375 -0.01953125 66.38734375 -0.01953125 65.02734375 C0.64046875 64.69734375 1.30046875 64.36734375 1.98046875 64.02734375 C1.98046875 62.04734375 1.98046875 60.06734375 1.98046875 58.02734375 C0.33046875 58.68734375 -1.31953125 59.34734375 -3.01953125 60.02734375 C-3.01953125 59.03734375 -3.01953125 58.04734375 -3.01953125 57.02734375 C-4.00953125 57.35734375 -4.99953125 57.68734375 -6.01953125 58.02734375 C-8.20703125 57.08984375 -8.20703125 57.08984375 -10.01953125 56.02734375 C-10.51453125 57.01734375 -10.51453125 57.01734375 -11.01953125 58.02734375 C-11.67953125 58.02734375 -12.33953125 58.02734375 -13.01953125 58.02734375 C-13.51453125 59.01734375 -13.51453125 59.01734375 -14.01953125 60.02734375 C-15.99953125 59.36734375 -17.97953125 58.70734375 -20.01953125 58.02734375 C-20.34953125 59.01734375 -20.67953125 60.00734375 -21.01953125 61.02734375 C-21.67953125 60.69734375 -22.33953125 60.36734375 -23.01953125 60.02734375 C-23.01953125 62.00734375 -23.01953125 63.98734375 -23.01953125 66.02734375 C-24.99953125 65.36734375 -26.97953125 64.70734375 -29.01953125 64.02734375 C-29.01953125 66.33734375 -29.01953125 68.64734375 -29.01953125 71.02734375 C-29.67953125 70.69734375 -30.33953125 70.36734375 -31.01953125 70.02734375 C-31.01953125 66.72734375 -31.01953125 63.42734375 -31.01953125 60.02734375 C-30.35953125 60.02734375 -29.69953125 60.02734375 -29.01953125 60.02734375 C-29.01953125 59.03734375 -29.01953125 58.04734375 -29.01953125 57.02734375 C-27.03953125 57.68734375 -25.05953125 58.34734375 -23.01953125 59.02734375 C-23.01953125 57.04734375 -23.01953125 55.06734375 -23.01953125 53.02734375 C-22.35953125 53.02734375 -21.69953125 53.02734375 -21.01953125 53.02734375 C-21.01953125 51.04734375 -21.01953125 49.06734375 -21.01953125 47.02734375 C-21.67953125 46.69734375 -22.33953125 46.36734375 -23.01953125 46.02734375 C-23.34953125 47.01734375 -23.67953125 48.00734375 -24.01953125 49.02734375 C-24.67953125 48.69734375 -25.33953125 48.36734375 -26.01953125 48.02734375 C-26.34953125 49.01734375 -26.67953125 50.00734375 -27.01953125 51.02734375 C-27.67953125 50.69734375 -28.33953125 50.36734375 -29.01953125 50.02734375 C-29.34953125 51.01734375 -29.67953125 52.00734375 -30.01953125 53.02734375 C-31.95703125 52.27734375 -31.95703125 52.27734375 -34.01953125 51.02734375 C-34.16390625 50.36734375 -34.30828125 49.70734375 -34.45703125 49.02734375 C-34.64265625 48.36734375 -34.82828125 47.70734375 -35.01953125 47.02734375 C-37.50987511 45.73073941 -37.50987511 45.73073941 -40.01953125 45.02734375 C-40.01953125 48.32734375 -40.01953125 51.62734375 -40.01953125 55.02734375 C-41.99953125 54.03734375 -43.97953125 53.04734375 -46.01953125 52.02734375 C-45.68953125 50.70734375 -45.35953125 49.38734375 -45.01953125 48.02734375 C-44.35953125 48.35734375 -43.69953125 48.68734375 -43.01953125 49.02734375 C-43.01953125 46.71734375 -43.01953125 44.40734375 -43.01953125 42.02734375 C-44.99953125 41.36734375 -46.97953125 40.70734375 -49.01953125 40.02734375 C-49.01953125 38.70734375 -49.01953125 37.38734375 -49.01953125 36.02734375 C-49.67953125 36.02734375 -50.33953125 36.02734375 -51.01953125 36.02734375 C-51.01953125 30.74734375 -51.01953125 25.46734375 -51.01953125 20.02734375 C-44.85379055 16.85798804 -38.67909621 13.70710082 -32.49536133 10.57299805 C-30.39285872 9.5041407 -28.29289603 8.43027189 -26.19555664 7.35131836 C-23.18117783 5.80169802 -20.15813784 4.27030306 -17.1328125 2.7421875 C-16.19617264 2.25580307 -15.25953278 1.76941864 -14.29450989 1.26829529 C-12.97370674 0.60749718 -12.97370674 0.60749718 -11.6262207 -0.06665039 C-10.85566849 -0.45969864 -10.08511627 -0.85274689 -9.29121399 -1.25770569 C-5.81826454 -2.35072238 -3.21194542 -1.54695244 0 0 Z " fill="#80348D" transform="translate(94.01953125,17.97265625)"/>
<path d="M0 0 C7.97742611 3.55302133 15.82035865 7.33327962 23.625 11.25 C24.71167969 11.79140625 25.79835938 12.3328125 26.91796875 12.890625 C27.94792969 13.40625 28.97789063 13.921875 30.0390625 14.453125 C31.43439209 15.15163574 31.43439209 15.15163574 32.85791016 15.86425781 C35 17 35 17 36 18 C36.09365006 19.7492872 36.11744438 21.50236254 36.11352539 23.25415039 C36.11341209 24.93578026 36.11341209 24.93578026 36.11329651 26.65138245 C36.10813522 27.8711528 36.10297394 29.09092316 36.09765625 30.34765625 C36.0962413 31.58921982 36.09482635 32.83078339 36.09336853 34.10997009 C36.08870591 37.41605491 36.07971497 40.72207146 36.06866455 44.02813721 C36.05844827 47.3996115 36.05387045 50.77109283 36.04882812 54.14257812 C36.03777395 60.76173775 36.02101736 67.38086493 36 74 C35.67 74 35.34 74 35 74 C34.9845388 73.10797127 34.9845388 73.10797127 34.96876526 72.19792175 C34.86072115 66.01749631 34.74612134 59.83721728 34.62768555 53.65698242 C34.58433001 51.34939635 34.5426554 49.04177806 34.50268555 46.73413086 C34.44499817 43.42031133 34.38129908 40.10665403 34.31640625 36.79296875 C34.29969376 35.7585112 34.28298126 34.72405365 34.26576233 33.6582489 C34.2358445 32.21709465 34.2358445 32.21709465 34.20532227 30.74682617 C34.18200584 29.47774666 34.18200584 29.47774666 34.15821838 28.18302917 C34.07725897 25.82040513 34.07725897 25.82040513 33 23 C31.515 23.495 31.515 23.495 30 24 C30 23.01 30 22.02 30 21 C29.48050781 21.30035156 28.96101563 21.60070312 28.42578125 21.91015625 C22.65866209 25.05488851 22.65866209 25.05488851 19 24.75 C18.34 24.5025 17.68 24.255 17 24 C17.495 25.485 17.495 25.485 18 27 C17.401875 27.226875 16.80375 27.45375 16.1875 27.6875 C13.43648112 29.33811133 12.47515363 31.1972081 11 34 C10.67 33.01 10.34 32.02 10 31 C9.48050781 31.28875 8.96101563 31.5775 8.42578125 31.875 C1.49912127 35.56239016 1.49912127 35.56239016 -3 35 C-3.33 35.99 -3.66 36.98 -4 38 C-7.83880196 40.23186161 -11.77094094 41.68429274 -16 43 C-16.99 43.33 -17.98 43.66 -19 44 C-18.67 42.02 -18.34 40.04 -18 38 C-20.31 36.68 -22.62 35.36 -25 34 C-25.33 34.99 -25.66 35.98 -26 37 C-26.66 36.67 -27.32 36.34 -28 36 C-28.33333333 34.66666667 -28.66666667 33.33333333 -29 32 C-29.66 31.67 -30.32 31.34 -31 31 C-31.33 31.99 -31.66 32.98 -32 34 C-35.27275026 34 -37.846632 33.70074844 -41 33 C-41.33 34.98 -41.66 36.96 -42 39 C-49.42857143 35.85714286 -49.42857143 35.85714286 -53 34 C-53 31.69 -53 29.38 -53 27 C-52.34 27 -51.68 27 -51 27 C-50.87625 27.639375 -50.7525 28.27875 -50.625 28.9375 C-50.315625 29.9584375 -50.315625 29.9584375 -50 31 C-49.34 31.33 -48.68 31.66 -48 32 C-48 30.02 -48 28.04 -48 26 C-44.59687262 27.05875074 -41.98646769 28.00902154 -39 30 C-39.66 28.02 -40.32 26.04 -41 24 C-37.62294375 24.53725895 -34.303314 25.11064623 -31 26 C-30.9175 25.4225 -30.835 24.845 -30.75 24.25 C-29.79468987 21.3840696 -28.21530827 20.0009236 -26 18 C-27.2375 18.04125 -28.475 18.0825 -29.75 18.125 C-33.01637962 18.13658291 -35.2146947 17.8568702 -38 16 C-38 15.34 -38 14.68 -38 14 C-35.03 14.66 -32.06 15.32 -29 16 C-29.33 15.01 -29.66 14.02 -30 13 C-28.5459375 12.319375 -28.5459375 12.319375 -27.0625 11.625 C-23.92920418 10.34213779 -23.92920418 10.34213779 -23 8 C-24.32 7.34 -25.64 6.68 -27 6 C-21.60931587 2.40621058 -18.46326465 1.54643757 -12 2 C-11.505 4.475 -11.505 4.475 -11 7 C-13.64738916 8.4606285 -14.89448334 9 -18 9 C-18 8.34 -18 7.68 -18 7 C-16.68 6.67 -15.36 6.34 -14 6 C-14 5.34 -14 4.68 -14 4 C-15.98 4.66 -17.96 5.32 -20 6 C-20 6.99 -20 7.98 -20 9 C-18.906875 9.12375 -17.81375 9.2475 -16.6875 9.375 C-13 10 -13 10 -10 12 C-8.34450469 12.38499891 -6.6777567 12.72793135 -5 13 C-5 12.34 -5 11.68 -5 11 C-5.66 10.67 -6.32 10.34 -7 10 C-7 9.01 -7 8.02 -7 7 C-5.5459375 6.38125 -5.5459375 6.38125 -4.0625 5.75 C-0.86188547 4.37507457 -0.86188547 4.37507457 -0.30859375 1.890625 C-0.20675781 1.26671875 -0.10492188 0.6428125 0 0 Z " fill="#8D678B" transform="translate(99,21)"/>
<path d="M0 0 C0.33 0 0.66 0 1 0 C1 4.95 1 9.9 1 15 C1.66 15 2.32 15 3 15 C3 16.32 3 17.64 3 19 C4.98 19.66 6.96 20.32 9 21 C9 23.31 9 25.62 9 28 C8.34 28 7.68 28 7 28 C6.67 28.99 6.34 29.98 6 31 C8.475 31.99 8.475 31.99 11 33 C11.495 28.545 11.495 28.545 12 24 C13.65 24.33 15.3 24.66 17 25 C17.33 26.65 17.66 28.3 18 30 C19.32 30.33 20.64 30.66 22 31 C22.33 30.34 22.66 29.68 23 29 C23.66 29 24.32 29 25 29 C25.33 28.34 25.66 27.68 26 27 C26.66 27 27.32 27 28 27 C28.33 26.34 28.66 25.68 29 25 C29.99 25.33 30.98 25.66 32 26 C32 28.31 32 30.62 32 33 C30.515 32.505 30.515 32.505 29 32 C29 33.98 29 35.96 29 38 C27.02 37.34 25.04 36.68 23 36 C23 36.99 23 37.98 23 39 C22.34 39 21.68 39 21 39 C21.1135629 40.64666203 21.24117381 42.29236082 21.375 43.9375 C21.44460937 44.85402344 21.51421875 45.77054688 21.5859375 46.71484375 C21.72257812 47.46894531 21.85921875 48.22304687 22 49 C22.66 49.33 23.32 49.66 24 50 C24 49.01 24 48.02 24 47 C25.32 47.33 26.64 47.66 28 48 C28.33 47.34 28.66 46.68 29 46 C33.03520597 47.58962659 37.01811282 49.28232318 41 51 C41 48.69 41 46.38 41 44 C40.01 43.67 39.02 43.34 38 43 C38 42.01 38 41.02 38 40 C39.98 40.66 41.96 41.32 44 42 C44 41.34 44 40.68 44 40 C44.66 40 45.32 40 46 40 C46 44.62 46 49.24 46 54 C44.35 53.34 42.7 52.68 41 52 C41 53.32 41 54.64 41 56 C42.65 56.33 44.3 56.66 46 57 C46.1968999 59.35371114 46.38270974 61.7074695 46.5625 64.0625 C46.71912109 66.02896484 46.71912109 66.02896484 46.87890625 68.03515625 C46.99765619 71.92325897 46.66866216 75.19110223 46 79 C34.88286035 73.81646621 23.85005956 68.47844321 12.875 63 C11.71887207 62.42419189 10.56274414 61.84838379 9.37158203 61.25512695 C7.76065674 60.44821411 7.76065674 60.44821411 6.1171875 59.625 C5.15409668 59.14289063 4.19100586 58.66078125 3.19873047 58.1640625 C1 57 1 57 0 56 C-0.09365006 54.2507128 -0.11744438 52.49763746 -0.11352539 50.74584961 C-0.11344986 49.62476303 -0.11337433 48.50367645 -0.11329651 47.34861755 C-0.10813522 46.1288472 -0.10297394 44.90907684 -0.09765625 43.65234375 C-0.0962413 42.41078018 -0.09482635 41.16921661 -0.09336853 39.89002991 C-0.08870591 36.58394509 -0.07971497 33.27792854 -0.06866455 29.97186279 C-0.05844827 26.6003885 -0.05387045 23.22890717 -0.04882812 19.85742188 C-0.03777395 13.23826225 -0.02101736 6.61913507 0 0 Z " fill="#A8AD7C" transform="translate(42,39)"/>
<path d="M0 0 C0.495 0.99 0.495 0.99 1 2 C1.66 2 2.32 2 3 2 C5 4 5 4 5.125 7.625 C5.08375 8.73875 5.0425 9.8525 5 11 C3.35 11.66 1.7 12.32 0 13 C0 14.65 0 16.3 0 18 C-0.99 18 -1.98 18 -3 18 C-3.0825 18.78375 -3.165 19.5675 -3.25 20.375 C-3.4975 21.24125 -3.745 22.1075 -4 23 C-5.31647119 23.69937532 -6.65022151 24.36729133 -8 25 C-8.36162029 26.32594105 -8.69728039 27.65938457 -9 29 C-9.99 29.33 -10.98 29.66 -12 30 C-12 26.7 -12 23.4 -12 20 C-12.66 20.33 -13.32 20.66 -14 21 C-14.165 21.66 -14.33 22.32 -14.5 23 C-14.665 23.66 -14.83 24.32 -15 25 C-15.66 25.33 -16.32 25.66 -17 26 C-17.433125 27.2375 -17.433125 27.2375 -17.875 28.5 C-19 31 -19 31 -21.125 31.8125 C-21.74375 31.874375 -22.3625 31.93625 -23 32 C-23 31.01 -23 30.02 -23 29 C-25.64452575 29.71204241 -25.64452575 29.71204241 -28 32 C-28.76562117 35.65557149 -28.93037367 39.27182653 -29 43 C-30.98 43.66 -32.96 44.32 -35 45 C-35 43.68 -35 42.36 -35 41 C-34.01 40.505 -34.01 40.505 -33 40 C-33 38.02 -33 36.04 -33 34 C-34.65 34.66 -36.3 35.32 -38 36 C-38 35.01 -38 34.02 -38 33 C-39.485 33.495 -39.485 33.495 -41 34 C-41 29.38 -41 24.76 -41 20 C-39.20963542 19.05598958 -37.41927083 18.11197917 -35.62890625 17.16796875 C-33.67732013 16.00980201 -33.67732013 16.00980201 -33 13 C-31.96875 12.87625 -30.9375 12.7525 -29.875 12.625 C-26.37883154 12.06110186 -23.31602373 11.21317941 -20 10 C-19.67 10.66 -19.34 11.32 -19 12 C-18.3503125 10.824375 -18.3503125 10.824375 -17.6875 9.625 C-16 7 -16 7 -13 5 C-13 4.34 -13 3.68 -13 3 C-11.9275 2.87625 -10.855 2.7525 -9.75 2.625 C-6.35047953 2.05841326 -3.30884926 0 0 0 Z " fill="#3F1945" transform="translate(129,42)"/>
<path d="M0 0 C1.98 0.66 3.96 1.32 6 2 C6 1.34 6 0.68 6 0 C6.66 0 7.32 0 8 0 C8 4.62 8 9.24 8 14 C5.525 13.01 5.525 13.01 3 12 C3 13.32 3 14.64 3 16 C4.65 16.33 6.3 16.66 8 17 C8.1968999 19.35371114 8.38270974 21.7074695 8.5625 24.0625 C8.71912109 26.02896484 8.71912109 26.02896484 8.87890625 28.03515625 C8.99765619 31.92325897 8.66866216 35.19110223 8 39 C3.55299032 36.92027838 -0.88559566 34.82531759 -5.3125 32.703125 C-9.22785371 30.82781884 -13.16699842 29.01773313 -17.125 27.234375 C-19.12547702 26.30310734 -21.12548721 25.37083614 -23.125 24.4375 C-24.09066895 24.01557373 -25.05633789 23.59364746 -26.05126953 23.15893555 C-32.5893048 20.04797252 -32.5893048 20.04797252 -33.83105469 16.87939453 C-34.1171875 14.66015625 -34.1171875 14.66015625 -34 11 C-29.97032739 12.21827311 -26.39841445 13.47546355 -23 16 C-22.835 16.680625 -22.67 17.36125 -22.5 18.0625 C-22.335 18.701875 -22.17 19.34125 -22 20 C-19.50965614 21.29660434 -19.50965614 21.29660434 -17 22 C-17 21.34 -17 20.68 -17 20 C-15.5 18.375 -15.5 18.375 -14 17 C-14.99 16.67 -15.98 16.34 -17 16 C-17 15.01 -17 14.02 -17 13 C-16.34 13 -15.68 13 -15 13 C-14.67 11.02 -14.34 9.04 -14 7 C-12.68 7.33 -11.36 7.66 -10 8 C-9.67 7.34 -9.34 6.68 -9 6 C-4.96479403 7.58962659 -0.98188718 9.28232318 3 11 C3 8.69 3 6.38 3 4 C2.01 3.67 1.02 3.34 0 3 C0 2.01 0 1.02 0 0 Z " fill="#A5A977" transform="translate(80,79)"/>
<path d="M0 0 C1.65 0 3.3 0 5 0 C5 2.31 5 4.62 5 7 C4.01 6.67 3.02 6.34 2 6 C2.33 9.63 2.66 13.26 3 17 C3.9075 17.28875 4.815 17.5775 5.75 17.875 C8.32202908 18.76531776 10.61346766 19.71494413 13 21 C13.33 19.02 13.66 17.04 14 15 C15.98 15.66 17.96 16.32 20 17 C20.33 16.34 20.66 15.68 21 15 C21.99 15.33 22.98 15.66 24 16 C24.33 15.34 24.66 14.68 25 14 C25.99 14.33 26.98 14.66 28 15 C28 16.32 28 17.64 28 19 C28.66 19 29.32 19 30 19 C30.33 18.34 30.66 17.68 31 17 C33.9719385 18.12451727 36.33440687 19.22293791 39 21 C38.33333333 23 37.66666667 25 37 27 C37.99 26.34 38.98 25.68 40 25 C40.99 25 41.98 25 43 25 C43.33 24.34 43.66 23.68 44 23 C45 24 45 24 45.09765625 26.94140625 C45.08605469 28.13636719 45.07445312 29.33132812 45.0625 30.5625 C45.05347656 31.76003906 45.04445312 32.95757812 45.03515625 34.19140625 C45.02355469 35.11824219 45.01195312 36.04507813 45 37 C43.68 36.67 42.36 36.34 41 36 C40.505 36.99 40.505 36.99 40 38 C39.34 38 38.68 38 38 38 C37.505 38.99 37.505 38.99 37 40 C35.02 39.34 33.04 38.68 31 38 C30.67 38.99 30.34 39.98 30 41 C29.34 40.67 28.68 40.34 28 40 C28 41.98 28 43.96 28 46 C26.02 45.34 24.04 44.68 22 44 C22 46.31 22 48.62 22 51 C21.34 50.67 20.68 50.34 20 50 C20 46.7 20 43.4 20 40 C20.66 40 21.32 40 22 40 C22 39.01 22 38.02 22 37 C23.98 37.66 25.96 38.32 28 39 C28 37.02 28 35.04 28 33 C28.66 33 29.32 33 30 33 C30 31.02 30 29.04 30 27 C29.34 26.67 28.68 26.34 28 26 C27.67 26.99 27.34 27.98 27 29 C26.34 28.67 25.68 28.34 25 28 C24.67 28.99 24.34 29.98 24 31 C23.34 30.67 22.68 30.34 22 30 C21.67 30.99 21.34 31.98 21 33 C19.0625 32.25 19.0625 32.25 17 31 C16.855625 30.34 16.71125 29.68 16.5625 29 C16.376875 28.34 16.19125 27.68 16 27 C13.50965614 25.70339566 13.50965614 25.70339566 11 25 C11 28.3 11 31.6 11 35 C9.02 34.01 7.04 33.02 5 32 C5.33 30.68 5.66 29.36 6 28 C6.66 28.33 7.32 28.66 8 29 C8 26.69 8 24.38 8 22 C6.02 21.34 4.04 20.68 2 20 C2 18.68 2 17.36 2 16 C1.34 16 0.68 16 0 16 C0 10.72 0 5.44 0 0 Z " fill="#47174E" transform="translate(43,38)"/>
<path d="M0 0 C8.46531946 3.74892719 16.74356105 7.81754115 25 12 C25 12.33 25 12.66 25 13 C20.54782646 13.1085896 16.40156062 12.62879437 12 12 C10.0003305 11.96364237 7.99940538 11.95123402 6 12 C5.505 11.01 5.505 11.01 5 10 C5.33 9.34 5.66 8.68 6 8 C5.01 8.33 4.02 8.66 3 9 C3.33 9.66 3.66 10.32 4 11 C3.34 11 2.68 11 2 11 C2 11.66 2 12.32 2 13 C3.32 13.33 4.64 13.66 6 14 C5.25 18.75 5.25 18.75 3 21 C3.495 21.433125 3.99 21.86625 4.5 22.3125 C6 24 6 24 6 27 C3 29 3 29 -1 29 C-0.67 28.01 -0.34 27.02 0 26 C-0.99 26 -1.98 26 -3 26 C-3 26.99 -3 27.98 -3 29 C-7.75 28.25 -7.75 28.25 -10 26 C-9.625 23.375 -9.625 23.375 -9 21 C-10.32 20.34 -11.64 19.68 -13 19 C-12.34 19 -11.68 19 -11 19 C-11 18.34 -11 17.68 -11 17 C-12.98 17.33 -14.96 17.66 -17 18 C-17 17.01 -17 16.02 -17 15 C-16.34 14.67 -15.68 14.34 -15 14 C-16.32 14 -17.64 14 -19 14 C-19.66 15.32 -20.32 16.64 -21 18 C-25.68322981 16.55900621 -25.68322981 16.55900621 -27.0625 14.125 C-27 12 -27 12 -25.0625 9.75 C-24.381875 9.1725 -23.70125 8.595 -23 8 C-24.32 7.34 -25.64 6.68 -27 6 C-21.60931587 2.40621058 -18.46326465 1.54643757 -12 2 C-11.67 3.65 -11.34 5.3 -11 7 C-13.64738916 8.4606285 -14.89448334 9 -18 9 C-18 8.34 -18 7.68 -18 7 C-16.68 6.67 -15.36 6.34 -14 6 C-14 5.34 -14 4.68 -14 4 C-15.98 4.66 -17.96 5.32 -20 6 C-20 6.99 -20 7.98 -20 9 C-18.906875 9.12375 -17.81375 9.2475 -16.6875 9.375 C-13 10 -13 10 -10 12 C-8.34450469 12.38499891 -6.6777567 12.72793135 -5 13 C-5 12.34 -5 11.68 -5 11 C-5.66 10.67 -6.32 10.34 -7 10 C-7 9.01 -7 8.02 -7 7 C-5.5459375 6.38125 -5.5459375 6.38125 -4.0625 5.75 C-0.86188547 4.37507457 -0.86188547 4.37507457 -0.30859375 1.890625 C-0.20675781 1.26671875 -0.10492188 0.6428125 0 0 Z " fill="#9E49A9" transform="translate(99,21)"/>
<path d="M0 0 C0 8.25 0 16.5 0 25 C-1.65 25.66 -3.3 26.32 -5 27 C-5.495 26.01 -5.495 26.01 -6 25 C-8.475 26.485 -8.475 26.485 -11 28 C-11 26.68 -11 25.36 -11 24 C-11.69867188 24.3609375 -12.39734375 24.721875 -13.1171875 25.09375 C-14.02726562 25.5578125 -14.93734375 26.021875 -15.875 26.5 C-16.77992187 26.9640625 -17.68484375 27.428125 -18.6171875 27.90625 C-21 29 -21 29 -23 29 C-23 31.64 -23 34.28 -23 37 C-23.66 37 -24.32 37 -25 37 C-25.027193 35.41676312 -25.04648306 33.83338938 -25.0625 32.25 C-25.07410156 31.36828125 -25.08570312 30.4865625 -25.09765625 29.578125 C-25.00826198 27.2181162 -24.66912821 25.25501476 -24 23 C-27.19524011 25.13016007 -27.71803298 26.10062573 -29.3125 29.4375 C-31.53047074 33.61803879 -33.38065299 35.46021766 -38 37 C-38.66 37 -39.32 37 -40 37 C-39.67 35.68 -39.34 34.36 -39 33 C-36.525 32.505 -36.525 32.505 -34 32 C-34.04640625 31.24074219 -34.0928125 30.48148438 -34.140625 29.69921875 C-34.17671875 28.70535156 -34.2128125 27.71148437 -34.25 26.6875 C-34.29640625 25.70136719 -34.3428125 24.71523437 -34.390625 23.69921875 C-34 21 -34 21 -32.109375 19.14453125 C-30 18 -30 18 -28 18 C-27.67 18.66 -27.34 19.32 -27 20 C-26.01 19.67 -25.02 19.34 -24 19 C-22.78130071 16.49552484 -22.78130071 16.49552484 -22 14 C-21.34 14 -20.68 14 -20 14 C-19.67 12.35 -19.34 10.7 -19 9 C-18.34 9 -17.68 9 -17 9 C-16.67 11.97 -16.34 14.94 -16 18 C-15.34 18 -14.68 18 -14 18 C-13.9175 17.21625 -13.835 16.4325 -13.75 15.625 C-13.5025 14.75875 -13.255 13.8925 -13 13 C-11.68352881 12.30062468 -10.34977849 11.63270867 -9 11 C-8.19471111 8.94999129 -8.19471111 8.94999129 -8 7 C-7.01 7 -6.02 7 -5 7 C-5 5.35 -5 3.7 -5 2 C-1.125 0 -1.125 0 0 0 Z " fill="#636145" transform="translate(134,53)"/>
<path d="M0 0 C0.99 0.66 1.98 1.32 3 2 C3 2.66 3 3.32 3 4 C3.66 4.66 4.32 5.32 5 6 C4.67 6.66 4.34 7.32 4 8 C5.093125 7.938125 6.18625 7.87625 7.3125 7.8125 C11 8 11 8 12.9375 9.125 C14.44484863 11.785027 14.19986253 14.00206205 14 17 C12.56260487 17.02712066 11.12506137 17.04645067 9.6875 17.0625 C8.48673828 17.07990234 8.48673828 17.07990234 7.26171875 17.09765625 C5 17 5 17 2 16 C2 16.99 2 17.98 2 19 C3.918125 18.9690625 3.918125 18.9690625 5.875 18.9375 C9.75 18.875 9.75 18.875 12 20 C14.30028162 20.23174479 16.59880047 20.38109483 18.90625 20.5234375 C21 21 21 21 23 24 C22 27 22 27 19.8203125 28.1328125 C18.93085937 28.46023437 18.04140625 28.78765625 17.125 29.125 C16.24070313 29.45757812 15.35640625 29.79015625 14.4453125 30.1328125 C12.63681895 30.77416325 10.82037956 31.39320681 9 32 C9.33 30.02 9.66 28.04 10 26 C7.69 24.68 5.38 23.36 3 22 C2.67 22.99 2.34 23.98 2 25 C1.34 24.67 0.68 24.34 0 24 C-0.33333333 22.66666667 -0.66666667 21.33333333 -1 20 C-1.66 19.67 -2.32 19.34 -3 19 C-3.33 19.99 -3.66 20.98 -4 22 C-7.27275026 22 -9.846632 21.70074844 -13 21 C-13.33 22.98 -13.66 24.96 -14 27 C-21.42857143 23.85714286 -21.42857143 23.85714286 -25 22 C-25 19.69 -25 17.38 -25 15 C-24.34 15 -23.68 15 -23 15 C-22.87625 15.639375 -22.7525 16.27875 -22.625 16.9375 C-22.315625 17.9584375 -22.315625 17.9584375 -22 19 C-21.34 19.33 -20.68 19.66 -20 20 C-20 18.02 -20 16.04 -20 14 C-16.59687262 15.05875074 -13.98646769 16.00902154 -11 18 C-11.66 16.02 -12.32 14.04 -13 12 C-9.62294375 12.53725895 -6.303314 13.11064623 -3 14 C-2.9175 13.4225 -2.835 12.845 -2.75 12.25 C-1.79468987 9.3840696 -0.21530827 8.0009236 2 6 C0.7625 6.04125 -0.475 6.0825 -1.75 6.125 C-5.01637962 6.13658291 -7.2146947 5.8568702 -10 4 C-10 3.34 -10 2.68 -10 2 C-7.03 2.66 -4.06 3.32 -1 4 C-1.33 3.01 -1.66 2.02 -2 1 C-1.34 0.67 -0.68 0.34 0 0 Z " fill="#6A2874" transform="translate(71,33)"/>
<path d="M0 0 C0.94875 0.33 1.8975 0.66 2.875 1 C5.77062452 2.10159191 5.77062452 2.10159191 8 2 C8 2.99 8 3.98 8 5 C9.98 4.01 11.96 3.02 14 2 C14 4.31 14 6.62 14 9 C13.01 9.33 12.02 9.66 11 10 C11 12.31 11 14.62 11 17 C17.44064828 14.48923881 19.97771423 12.35602997 22.796875 6.0234375 C24.2207213 3.62878691 25.44326804 2.99905913 28 2 C27.67 3.65 27.34 5.3 27 7 C26.34 7 25.68 7 25 7 C25.04640625 7.97582031 25.0928125 8.95164062 25.140625 9.95703125 C25.19476563 11.86548828 25.19476563 11.86548828 25.25 13.8125 C25.29640625 15.07707031 25.3428125 16.34164062 25.390625 17.64453125 C25 21 25 21 23.21875 22.875 C20.24807927 24.38125558 17.22303356 25.19424161 14 26 C13.505 23.525 13.505 23.525 13 21 C11.68 21.33 10.36 21.66 9 22 C9 21.01 9 20.02 9 19 C7.68 19.33 6.36 19.66 5 20 C5 15.38 5 10.76 5 6 C4.34 6 3.68 6 3 6 C3 6.66 3 7.32 3 8 C1.02 7.34 -0.96 6.68 -3 6 C-2.67 6.99 -2.34 7.98 -2 9 C-1.34 9.33 -0.68 9.66 0 10 C0 12.31 0 14.62 0 17 C-4.47959418 15.85814266 -8.14522751 14.56984833 -12 12 C-12.33 12.99 -12.66 13.98 -13 15 C-14.32 14.34 -15.64 13.68 -17 13 C-17.33 13.99 -17.66 14.98 -18 16 C-18 13.69 -18 11.38 -18 9 C-16.02 9.66 -14.04 10.32 -12 11 C-12 9.02 -12 7.04 -12 5 C-11.34 5 -10.68 5 -10 5 C-9.67 4.34 -9.34 3.68 -9 3 C-7.02 3.66 -5.04 4.32 -3 5 C-2.67 4.01 -2.34 3.02 -2 2 C-1.34 2.33 -0.68 2.66 0 3 C0 2.01 0 1.02 0 0 Z " fill="#6F7251" transform="translate(83,73)"/>
<path d="M0 0 C1.98 0 3.96 0 6 0 C10.59225513 9.41002278 10.59225513 9.41002278 10 14 C10.66 14 11.32 14 12 14 C12.18175781 13.11248047 12.18175781 13.11248047 12.3671875 12.20703125 C13.26744643 7.96196415 14.20456621 3.97560339 16 0 C17.98 0 19.96 0 22 0 C22.33747548 2.87456792 22.67010463 5.74956059 23 8.625 C23.09539062 9.43324219 23.19078125 10.24148437 23.2890625 11.07421875 C23.78253617 15.40973739 24.11320717 19.62737311 24 24 C22.35 24 20.7 24 19 24 C19 19.38 19 14.76 19 10 C18.34 10 17.68 10 17 10 C16.79503906 10.84304687 16.59007812 11.68609375 16.37890625 12.5546875 C16.10949219 13.65039062 15.84007812 14.74609375 15.5625 15.875 C15.29566406 16.96554688 15.02882812 18.05609375 14.75390625 19.1796875 C14 22 14 22 13 24 C12.01 24 11.02 24 10 24 C8.35 20.04 6.7 16.08 5 12 C4.67 15.96 4.34 19.92 4 24 C2.35 24 0.7 24 -1 24 C-1.02712325 21.12493579 -1.04689851 18.25013092 -1.0625 15.375 C-1.07087891 14.56675781 -1.07925781 13.75851563 -1.08789062 12.92578125 C-1.1058955 8.49658082 -0.89622662 4.36116576 0 0 Z " fill="#0F0F0F" transform="translate(208,58)"/>
<path d="M0 0 C2.44967679 1.17982499 4.67088852 2.58426557 7 4 C6.8125 6.3125 6.8125 6.3125 6 9 C3.4375 10.8125 3.4375 10.8125 1 12 C1.495 14.475 1.495 14.475 2 17 C-4.875 16.125 -4.875 16.125 -6 15 C-7.34747084 14.76924918 -8.70377565 14.58846937 -10.0625 14.4375 C-11.361875 14.293125 -12.66125 14.14875 -14 14 C-13.125 9.125 -13.125 9.125 -12 8 C-10.33382885 7.95936168 -8.66611905 7.957279 -7 8 C-7 8.66 -7 9.32 -7 10 C-8.32 10.33 -9.64 10.66 -11 11 C-11 11.66 -11 12.32 -11 13 C-9.02 12.01 -7.04 11.02 -5 10 C-5 9.01 -5 8.02 -5 7 C-10.67276511 6.70658112 -13.99067246 6.99440348 -19 10 C-18.01 10.66 -17.02 11.32 -16 12 C-16.33 12.99 -16.66 13.98 -17 15 C-20.6094882 15.82183247 -23.98694361 16.16225746 -27.6875 16.1875 C-28.64011719 16.20167969 -29.59273437 16.21585938 -30.57421875 16.23046875 C-33 16 -33 16 -35 14 C-30.82814551 11.8274368 -26.64735394 9.67358206 -22.45727539 7.53637695 C-21.03378014 6.80704831 -19.61284031 6.07270913 -18.19458008 5.33325195 C-16.15319596 4.27001616 -14.10324186 3.22525261 -12.05078125 2.18359375 C-11.4203743 1.85032578 -10.78996735 1.5170578 -10.14045715 1.1736908 C-6.35390762 -0.72125163 -4.04804956 -1.40723081 0 0 Z " fill="#541A5D" transform="translate(92,17)"/>
<path d="M0 0 C11 0 11 0 14.1875 1.625 C16 4 16 4 16.5625 6.9375 C15.88971155 10.60045935 14.5249075 12.31728578 12 15 C12.5053125 15.56589844 13.010625 16.13179687 13.53125 16.71484375 C14.1809375 17.44832031 14.830625 18.18179688 15.5 18.9375 C16.47453125 20.03384766 16.47453125 20.03384766 17.46875 21.15234375 C19 23 19 23 19 24 C15.875 24.5 15.875 24.5 12 24 C9.57047394 21.59682455 7.7737836 18.91082436 6 16 C5.67 18.64 5.34 21.28 5 24 C3.35 24 1.7 24 0 24 C0 16.08 0 8.16 0 0 Z " fill="#0C0C0C" transform="translate(142,58)"/>
<path d="M0 0 C0.66 0.66 1.32 1.32 2 2 C3.32 1.67 4.64 1.34 6 1 C6 6.94 6 12.88 6 19 C2.37 20.65 -1.26 22.3 -5 24 C-5 23.01 -5 22.02 -5 21 C-5.99 21 -6.98 21 -8 21 C-8.05399736 19.54207116 -8.09279177 18.08357288 -8.125 16.625 C-8.15980469 15.40683594 -8.15980469 15.40683594 -8.1953125 14.1640625 C-8 12 -8 12 -6 10 C-5.896875 9.05125 -5.79375 8.1025 -5.6875 7.125 C-4.8191957 3.17816228 -3.28838596 2.19225731 0 0 Z " fill="#6F7251" transform="translate(128,77)"/>
<path d="M0 0 C1.65 0 3.3 0 5 0 C5 2.31 5 4.62 5 7 C4.01 6.67 3.02 6.34 2 6 C2.33 9.63 2.66 13.26 3 17 C3.9075 17.28875 4.815 17.5775 5.75 17.875 C8.32202908 18.76531776 10.61346766 19.71494413 13 21 C13.33 19.02 13.66 17.04 14 15 C15.98 15.66 17.96 16.32 20 17 C20.33 16.34 20.66 15.68 21 15 C21.99 15.33 22.98 15.66 24 16 C24.33 15.34 24.66 14.68 25 14 C25.99 14.33 26.98 14.66 28 15 C28 15.99 28 16.98 28 18 C27.34 18 26.68 18 26 18 C26 18.66 26 19.32 26 20 C25.01 20 24.02 20 23 20 C23 20.66 23 21.32 23 22 C21.68 21.67 20.36 21.34 19 21 C19 22.98 19 24.96 19 27 C16.23723823 26.47731534 13.6739124 25.89130413 11 25 C11 28.3 11 31.6 11 35 C9.02 34.01 7.04 33.02 5 32 C5.33 30.68 5.66 29.36 6 28 C6.66 28.33 7.32 28.66 8 29 C8 26.69 8 24.38 8 22 C6.02 21.34 4.04 20.68 2 20 C2 18.68 2 17.36 2 16 C1.34 16 0.68 16 0 16 C0 10.72 0 5.44 0 0 Z " fill="#4E1D55" transform="translate(43,38)"/>
<path d="M0 0 C1.98 0 3.96 0 6 0 C6.99 1.98 7.98 3.96 9 6 C11.7839183 4.60804085 11.97898997 2.84424221 13 0 C14.32 0 15.64 0 17 0 C18.4606285 2.64738916 19 3.89448334 19 7 C19.66 7 20.32 7 21 7 C21.309375 6.030625 21.61875 5.06125 21.9375 4.0625 C23 1 23 1 24 0 C25.66617115 -0.04063832 27.33388095 -0.042721 29 0 C27.63408831 3.54243452 26.09068516 6.92627929 24.375 10.3125 C23.92898438 11.19550781 23.48296875 12.07851562 23.0234375 12.98828125 C22.68570312 13.65214844 22.34796875 14.31601563 22 15 C20.68 15 19.36 15 18 15 C17.01 13.02 16.02 11.04 15 9 C14.01 10.485 14.01 10.485 13 12 C12.01 13.485 12.01 13.485 11 15 C9.234375 14.94140625 9.234375 14.94140625 7 14 C5.56357954 11.63808099 4.38749171 9.43461163 3.25 6.9375 C2.93417969 6.27427734 2.61835938 5.61105469 2.29296875 4.92773438 C1.51588722 3.29115358 0.75624233 1.64631405 0 0 Z " fill="#151515" transform="translate(265,67)"/>
<path d="M0 0 C3 1.5625 3 1.5625 5 4 C5.625 7.5 5.625 7.5 5 11 C2.88564247 13.57687323 1.32896485 14.74473348 -1.97265625 15.37890625 C-5.36510409 15.57547799 -7.61480134 15.24074916 -10.5 13.4375 C-12.58392818 10.05111671 -12.55802097 7.90614682 -12 4 C-9.13164868 -0.6610709 -5.08417223 -0.97656378 0 0 Z " fill="#0B0B0B" transform="translate(261,67)"/>
<path d="M0 0 C0.66 0 1.32 0 2 0 C2 2.31 2 4.62 2 7 C1.360625 7.268125 0.72125 7.53625 0.0625 7.8125 C-2.33131686 8.88667752 -2.33131686 8.88667752 -3 12 C-1.35 11.67 0.3 11.34 2 11 C2 13.31 2 15.62 2 18 C0.02 18.66 -1.96 19.32 -4 20 C-4 22.64 -4 25.28 -4 28 C-4.66 28 -5.32 28 -6 28 C-6.027193 26.41676312 -6.04648306 24.83338938 -6.0625 23.25 C-6.07410156 22.36828125 -6.08570312 21.4865625 -6.09765625 20.578125 C-6.00826198 18.2181162 -5.66912821 16.25501476 -5 14 C-8.19524011 16.13016007 -8.71803298 17.10062573 -10.3125 20.4375 C-12.53047074 24.61803879 -14.38065299 26.46021766 -19 28 C-19.66 28 -20.32 28 -21 28 C-20.67 26.68 -20.34 25.36 -20 24 C-18.35 23.67 -16.7 23.34 -15 23 C-15.04640625 22.24074219 -15.0928125 21.48148438 -15.140625 20.69921875 C-15.17671875 19.70535156 -15.2128125 18.71148437 -15.25 17.6875 C-15.29640625 16.70136719 -15.3428125 15.71523437 -15.390625 14.69921875 C-15 12 -15 12 -13.109375 10.14453125 C-11 9 -11 9 -9 9 C-8.67 9.66 -8.34 10.32 -8 11 C-7.01 10.67 -6.02 10.34 -5 10 C-3.78130071 7.49552484 -3.78130071 7.49552484 -3 5 C-2.34 5 -1.68 5 -1 5 C-0.67 3.35 -0.34 1.7 0 0 Z " fill="#625F45" transform="translate(115,62)"/>
<path d="M0 0 C1.65 0.33 3.3 0.66 5 1 C5.33 2.65 5.66 4.3 6 6 C7.32 6.33 8.64 6.66 10 7 C10.33 6.34 10.66 5.68 11 5 C11.66 5 12.32 5 13 5 C13.33 4.34 13.66 3.68 14 3 C14.66 3 15.32 3 16 3 C16.33 2.34 16.66 1.68 17 1 C17.99 1.33 18.98 1.66 20 2 C20 4.31 20 6.62 20 9 C19.01 8.67 18.02 8.34 17 8 C16.67 8.99 16.34 9.98 16 11 C14.35 10.34 12.7 9.68 11 9 C10.67 9.66 10.34 10.32 10 11 C8.68 10.67 7.36 10.34 6 10 C6 10.66 6 11.32 6 12 C5.01 12 4.02 12 3 12 C3 12.66 3 13.32 3 14 C2.01 14 1.02 14 0 14 C0 14.66 0 15.32 0 16 C-0.99 15.67 -1.98 15.34 -3 15 C-3 13.68 -3 12.36 -3 11 C-3.99 10.67 -4.98 10.34 -6 10 C-6 9.01 -6 8.02 -6 7 C-3.525 7.99 -3.525 7.99 -1 9 C-0.67 6.03 -0.34 3.06 0 0 Z " fill="#9A976A" transform="translate(54,63)"/>
<path d="M0 0 C0.33 0 0.66 0 1 0 C1 4.95 1 9.9 1 15 C1.66 15 2.32 15 3 15 C3 16.32 3 17.64 3 19 C4.98 19.66 6.96 20.32 9 21 C9 23.31 9 25.62 9 28 C8.34 28 7.68 28 7 28 C7 29.98 7 31.96 7 34 C7.66 34.33 8.32 34.66 9 35 C8.67 36.32 8.34 37.64 8 39 C6.0625 38.25 6.0625 38.25 4 37 C3.375 34.9375 3.375 34.9375 3 33 C2.34 32.67 1.68 32.34 1 32 C1 39.92 1 47.84 1 56 C0.67 56 0.34 56 0 56 C0 37.52 0 19.04 0 0 Z " fill="#B5AF9C" transform="translate(42,39)"/>
<path d="M0 0 C1.65 0.66 3.3 1.32 5 2 C5 3.32 5 4.64 5 6 C4.34 6 3.68 6 3 6 C3 6.66 3 7.32 3 8 C1.02 7.34 -0.96 6.68 -3 6 C-2.67 6.99 -2.34 7.98 -2 9 C-1.34 9.33 -0.68 9.66 0 10 C0 12.31 0 14.62 0 17 C-4.47959418 15.85814266 -8.14522751 14.56984833 -12 12 C-12.33 12.99 -12.66 13.98 -13 15 C-14.32 14.34 -15.64 13.68 -17 13 C-17.33 13.99 -17.66 14.98 -18 16 C-18 13.69 -18 11.38 -18 9 C-16.02 9.66 -14.04 10.32 -12 11 C-12 9.02 -12 7.04 -12 5 C-11.34 5 -10.68 5 -10 5 C-9.67 4.34 -9.34 3.68 -9 3 C-7.02 3.66 -5.04 4.32 -3 5 C-2.67 4.01 -2.34 3.02 -2 2 C-1.34 2.33 -0.68 2.66 0 3 C0 2.01 0 1.02 0 0 Z " fill="#908C66" transform="translate(83,73)"/>
<path d="M0 0 C1.98 0.66 3.96 1.32 6 2 C6 1.34 6 0.68 6 0 C6.66 0 7.32 0 8 0 C8 4.62 8 9.24 8 14 C6.35 13.34 4.7 12.68 3 12 C3 13.32 3 14.64 3 16 C4.65 16.33 6.3 16.66 8 17 C7.67 18.32 7.34 19.64 7 21 C3.7 19.35 0.4 17.7 -3 16 C-3.33 16.99 -3.66 17.98 -4 19 C-4.66 18.67 -5.32 18.34 -6 18 C-6.33 18.99 -6.66 19.98 -7 21 C-8.32 20.34 -9.64 19.68 -11 19 C-11 18.01 -11 17.02 -11 16 C-10.34 16 -9.68 16 -9 16 C-9 15.01 -9 14.02 -9 13 C-7.02 13.66 -5.04 14.32 -3 15 C-3 13.02 -3 11.04 -3 9 C-1.02 9.66 0.96 10.32 3 11 C3 8.69 3 6.38 3 4 C2.01 3.67 1.02 3.34 0 3 C0 2.01 0 1.02 0 0 Z " fill="#969368" transform="translate(80,79)"/>
<path d="M0 0 C2.4375 1.1875 2.4375 1.1875 4 3 C4 4.65 4 6.3 4 8 C0.7 8 -2.6 8 -6 8 C-5.67 8.66 -5.34 9.32 -5 10 C-3.329375 9.9690625 -3.329375 9.9690625 -1.625 9.9375 C2 10 2 10 4 11 C3 14 3 14 1 15 C-1.93421006 15.28395581 -4.15098834 15.49548029 -7 15 C-10.02791041 12.42627616 -10.86162709 10.84753406 -11.5 6.9375 C-11 4 -11 4 -9.4375 1.625 C-6.08716465 -0.6085569 -3.9518567 -0.49398209 0 0 Z " fill="#1F1F1F" transform="translate(171,67)"/>
<path d="M0 0 C2.9719385 1.12451727 5.33440687 2.22293791 8 4 C7 7 7 7 6 9 C4.02 8.34 2.04 7.68 0 7 C-0.33 7.99 -0.66 8.98 -1 10 C-1.66 9.67 -2.32 9.34 -3 9 C-3.33 9.99 -3.66 10.98 -4 12 C-4.66 11.67 -5.32 11.34 -6 11 C-6.33 11.99 -6.66 12.98 -7 14 C-7.66 13.67 -8.32 13.34 -9 13 C-9.33 13.99 -9.66 14.98 -10 16 C-11.32 15.34 -12.64 14.68 -14 14 C-14 12.68 -14 11.36 -14 10 C-13.34 10 -12.68 10 -12 10 C-12 8.02 -12 6.04 -12 4 C-10.68 4.33 -9.36 4.66 -8 5 C-8 4.34 -8 3.68 -8 3 C-7.01 3 -6.02 3 -5 3 C-5 2.34 -5 1.68 -5 1 C-3.68 1.33 -2.36 1.66 -1 2 C-0.67 1.34 -0.34 0.68 0 0 Z " fill="#5D2467" transform="translate(74,55)"/>
<path d="M0 0 C2.4375 1.75 2.4375 1.75 4 4 C4 5.32 4 6.64 4 8 C0.37 8 -3.26 8 -7 8 C-6.67 8.66 -6.34 9.32 -6 10 C-3.36 10 -0.72 10 2 10 C2 11.32 2 12.64 2 14 C-1.09173752 15.54586876 -3.59429552 15.29359521 -7 15 C-9.4375 13.5 -9.4375 13.5 -11 11 C-11.57853498 8.03575377 -11.39353376 6.09907833 -11 3 C-8.06403859 -0.7580306 -4.50318499 -0.56289812 0 0 Z " fill="#0D0D0D" transform="translate(244,67)"/>
<path d="M0 0 C0.33 1.32 0.66 2.64 1 4 C-0.98 3.34 -2.96 2.68 -5 2 C-5.33 2.99 -5.66 3.98 -6 5 C-6.66 4.67 -7.32 4.34 -8 4 C-8 8.29 -8 12.58 -8 17 C-16.75 14.25 -16.75 14.25 -19 12 C-19.125 8.375 -19.125 8.375 -19 5 C-18.01 5.33 -17.02 5.66 -16 6 C-16 5.34 -16 4.68 -16 4 C-15.01 4 -14.02 4 -13 4 C-13 3.34 -13 2.68 -13 2 C-12.01 2 -11.02 2 -10 2 C-10 1.34 -10 0.68 -10 0 C-6.30458414 -0.95024979 -3.69541586 -0.95024979 0 0 Z " fill="#A4A775" transform="translate(70,73)"/>
<path d="M0 0 C1.65 0 3.3 0 5 0 C3.515 1.98 3.515 1.98 2 4 C3.98 4 5.96 4 8 4 C8 4.99 8 5.98 8 7 C8.66 7.33 9.32 7.66 10 8 C9.67 8.99 9.34 9.98 9 11 C8.34 11 7.68 11 7 11 C7.33 11.99 7.66 12.98 8 14 C7.67 14.66 7.34 15.32 7 16 C10.3 16.33 13.6 16.66 17 17 C14 20 14 20 11.546875 20.328125 C10.62390625 20.30234375 9.7009375 20.2765625 8.75 20.25 C7.77417969 20.22421875 6.79835938 20.1984375 5.79296875 20.171875 C2.4915961 19.96871361 -0.73657611 19.5328039 -4 19 C-5.32 19 -6.64 19 -8 19 C-7.67 17.68 -7.34 16.36 -7 15 C1.57142857 14.85714286 1.57142857 14.85714286 5 16 C4.67 13.69 4.34 11.38 4 9 C-0.455 8.01 -0.455 8.01 -5 7 C-5 6.34 -5 5.68 -5 5 C-4.01 4.67 -3.02 4.34 -2 4 C-0.79117904 1.99983534 -0.79117904 1.99983534 0 0 Z " fill="#662371" transform="translate(80,34)"/>
<path d="M0 0 C0.33 1.65 0.66 3.3 1 5 C-1.64738916 6.4606285 -2.89448334 7 -6 7 C-6 6.34 -6 5.68 -6 5 C-4.68 4.67 -3.36 4.34 -2 4 C-2 3.34 -2 2.68 -2 2 C-3.98 2.66 -5.96 3.32 -8 4 C-8 4.99 -8 5.98 -8 7 C-6.4221875 7.12375 -6.4221875 7.12375 -4.8125 7.25 C-0.72952791 8.05320762 1.0122727 9.19334709 4 12 C-1.17578125 15.22265625 -1.17578125 15.22265625 -3 16 C-3.99 15.67 -4.98 15.34 -6 15 C-5.01 14.01 -4.02 13.02 -3 12 C-4.32 12 -5.64 12 -7 12 C-7.66 13.32 -8.32 14.64 -9 16 C-13.68322981 14.55900621 -13.68322981 14.55900621 -15.0625 12.125 C-15 10 -15 10 -13.0625 7.75 C-12.381875 7.1725 -11.70125 6.595 -11 6 C-12.32 5.34 -13.64 4.68 -15 4 C-9.60931587 0.40621058 -6.46326465 -0.45356243 0 0 Z " fill="#B150BA" transform="translate(87,23)"/>
<path d="M0 0 C0.99 0 1.98 0 3 0 C3 0.66 3 1.32 3 2 C2.34 2 1.68 2 1 2 C1 2.99 1 3.98 1 5 C2.98 4.67 4.96 4.34 7 4 C7 7.3 7 10.6 7 14 C5.37750059 14.83819158 3.75191503 15.6704116 2.125 16.5 C1.22007813 16.9640625 0.31515625 17.428125 -0.6171875 17.90625 C-3 19 -3 19 -5 19 C-5 15.7 -5 12.4 -5 9 C-4.34 8.67 -3.68 8.34 -3 8 C-3 6.68 -3 5.36 -3 4 C-2.34 3.34 -1.68 2.68 -1 2 C-0.67 1.34 -0.34 0.68 0 0 Z " fill="#57245F" transform="translate(96,55)"/>
<path d="M0 0 C1.32 0 2.64 0 4 0 C4.33 3.3 4.66 6.6 5 10 C6.65 10 8.3 10 10 10 C10.33 6.7 10.66 3.4 11 0 C12.32 0 13.64 0 15 0 C15.08107583 1.93681161 15.13922475 3.8745934 15.1875 5.8125 C15.22230469 6.89144531 15.25710937 7.97039062 15.29296875 9.08203125 C15 12 15 12 13.76953125 13.86328125 C11.54164299 15.29444126 10.1362878 15.40136288 7.5 15.375 C6.7265625 15.38273437 5.953125 15.39046875 5.15625 15.3984375 C3 15 3 15 1.23046875 13.86328125 C-0.55837413 11.15446203 -0.29096909 9.0200417 -0.1875 5.8125 C-0.16042969 4.72582031 -0.13335937 3.63914062 -0.10546875 2.51953125 C-0.07066406 1.68808594 -0.03585938 0.85664062 0 0 Z " fill="#070707" transform="translate(190,67)"/>
<path d="M0 0 C2 2 2 2 2 4 C3.65 4.33 5.3 4.66 7 5 C7 4.01 7 3.02 7 2 C8.32 2.33 9.64 2.66 11 3 C10.01 3.495 10.01 3.495 9 4 C9 4.66 9 5.32 9 6 C9.70125 5.67 10.4025 5.34 11.125 5 C14.32035587 3.88857187 16.63918352 3.70775509 20 4 C20.99 4.66 21.98 5.32 23 6 C22.34 7.65 21.68 9.3 21 11 C20.67 10.01 20.34 9.02 20 8 C19.48050781 8.28875 18.96101563 8.5775 18.42578125 8.875 C11.49912127 12.56239016 11.49912127 12.56239016 7 12 C6.67 12.99 6.34 13.98 6 15 C5.01 14.67 4.02 14.34 3 14 C3 13.01 3 12.02 3 11 C5 9.3125 5 9.3125 7 8 C2.545 7.01 2.545 7.01 -2 6 C-2 4.35 -2 2.7 -2 1 C-1.34 0.67 -0.68 0.34 0 0 Z " fill="#7D308A" transform="translate(89,44)"/>
<path d="M0 0 C7.75 -0.125 7.75 -0.125 10 1 C12.30028162 1.23174479 14.59880047 1.38109483 16.90625 1.5234375 C19 2 19 2 21 5 C20 8 20 8 17.8203125 9.1328125 C16.93085937 9.46023437 16.04140625 9.78765625 15.125 10.125 C14.24070312 10.45757812 13.35640625 10.79015625 12.4453125 11.1328125 C10.63681895 11.77416325 8.82037956 12.39320681 7 13 C7.33 11.02 7.66 9.04 8 7 C6.68 6.34 5.36 5.68 4 5 C4 4.01 4 3.02 4 2 C2.35 2 0.7 2 -1 2 C-0.67 1.34 -0.34 0.68 0 0 Z " fill="#7A3086" transform="translate(73,52)"/>
<path d="M0 0 C0.99 0.66 1.98 1.32 3 2 C3 2.66 3 3.32 3 4 C3.66 4.66 4.32 5.32 5 6 C4.67 6.66 4.34 7.32 4 8 C5.093125 7.938125 6.18625 7.87625 7.3125 7.8125 C11 8 11 8 12.9375 9.3125 C14 11 14 11 14 14 C12.35 14.33 10.7 14.66 9 15 C8.67 14.34 8.34 13.68 8 13 C4.7 13.33 1.4 13.66 -2 14 C-2 10 -2 10 0 7.75 C0.66 7.1725 1.32 6.595 2 6 C0.7625 6.04125 -0.475 6.0825 -1.75 6.125 C-5.01637962 6.13658291 -7.2146947 5.8568702 -10 4 C-10 3.34 -10 2.68 -10 2 C-5.545 2.99 -5.545 2.99 -1 4 C-1.33 3.01 -1.66 2.02 -2 1 C-1.34 0.67 -0.68 0.34 0 0 Z " fill="#7C2F88" transform="translate(71,33)"/>
<path d="M0 0 C2.01822917 0.06510417 4.03645833 0.13020833 6.0546875 0.1953125 C6.0546875 1.5153125 6.0546875 2.8353125 6.0546875 4.1953125 C4.4046875 3.8653125 2.7546875 3.5353125 1.0546875 3.1953125 C1.93758137 5.45460449 1.93758137 5.45460449 4.6171875 6.5078125 C5.4215625 7.0646875 6.2259375 7.6215625 7.0546875 8.1953125 C7.4921875 10.7578125 7.4921875 10.7578125 7.0546875 13.1953125 C5.0546875 15.1953125 5.0546875 15.1953125 2.890625 15.390625 C1.67246094 15.35582031 1.67246094 15.35582031 0.4296875 15.3203125 C-0.38757813 15.30226563 -1.20484375 15.28421875 -2.046875 15.265625 C-2.67335937 15.24242188 -3.29984375 15.21921875 -3.9453125 15.1953125 C-3.9453125 13.8753125 -3.9453125 12.5553125 -3.9453125 11.1953125 C-0.9753125 11.6903125 -0.9753125 11.6903125 2.0546875 12.1953125 C0.12213978 10.1707387 -1.57689938 8.77425458 -3.9453125 7.1953125 C-4.2578125 4.6953125 -4.2578125 4.6953125 -3.9453125 2.1953125 C-1.9453125 0.1953125 -1.9453125 0.1953125 0 0 Z " fill="#121212" transform="translate(180.9453125,66.8046875)"/>
<path d="M0 0 C0 0.66 0 1.32 0 2 C0.99 2 1.98 2 3 2 C3 3.65 3 5.3 3 7 C3.66 7.33 4.32 7.66 5 8 C3.04414675 9.00484204 1.08523763 10.00373805 -0.875 11 C-1.96554688 11.556875 -3.05609375 12.11375 -4.1796875 12.6875 C-7 14 -7 14 -9 14 C-9.3190184 5.86503067 -9.3190184 5.86503067 -7 2 C-4.52858057 0.7025048 -2.79207427 0 0 0 Z " fill="#747757" transform="translate(97,104)"/>
<path d="M0 0 C0.99 0 1.98 0 3 0 C3 0.99 3 1.98 3 3 C6.63 3 10.26 3 14 3 C14.33 3.66 14.66 4.32 15 5 C13.02 5.99 11.04 6.98 9 8 C8.56613908 11.87797662 8.56613908 11.87797662 10.5 13.75 C10.995 14.1625 11.49 14.575 12 15 C10.39667209 15.08121924 8.79215974 15.13929134 7.1875 15.1875 C6.29417969 15.22230469 5.40085937 15.25710937 4.48046875 15.29296875 C1.58352485 14.95081002 0.77444972 14.24606427 -1 12 C-0.525625 11.566875 -0.05125 11.13375 0.4375 10.6875 C2.23686957 8.97690387 2.23686957 8.97690387 3 6 C1.68 5.67 0.36 5.34 -1 5 C-0.67 3.35 -0.34 1.7 0 0 Z " fill="#682472" transform="translate(102,29)"/>
<path d="M0 0 C0.33 0.99 0.66 1.98 1 3 C1.66 3 2.32 3 3 3 C3 4.32 3 5.64 3 7 C2.34 7 1.68 7 1 7 C1.103125 8.093125 1.20625 9.18625 1.3125 10.3125 C1.1578125 12.1378125 1.1578125 12.1378125 1 14 C-1.4375 15.6875 -1.4375 15.6875 -4 17 C-4.6425235 19.06874034 -4.6425235 19.06874034 -5 21 C-5.99 21.33 -6.98 21.66 -8 22 C-8 19.69 -8 17.38 -8 15 C-7.01 14.67 -6.02 14.34 -5 14 C-5.05800781 13.24074219 -5.11601563 12.48148438 -5.17578125 11.69921875 C-5.31060403 8.72926554 -5.37006959 5.95184921 -5 3 C-2.5 0.8125 -2.5 0.8125 0 0 Z " fill="#3F1B44" transform="translate(125,50)"/>
<path d="M0 0 C0 0.66 0 1.32 0 2 C-0.99 2.495 -0.99 2.495 -2 3 C-2 3.99 -2 4.98 -2 6 C-2.66 6 -3.32 6 -4 6 C-4 6.66 -4 7.32 -4 8 C-1.03 8 1.94 8 5 8 C5.33 9.65 5.66 11.3 6 13 C3 15 3 15 -1 15 C-0.67 14.01 -0.34 13.02 0 12 C-0.99 12 -1.98 12 -3 12 C-3 12.99 -3 13.98 -3 15 C-7.75 14.25 -7.75 14.25 -10 12 C-9.505 11.0925 -9.01 10.185 -8.5 9.25 C-6.72062788 5.99126962 -6.72062788 5.99126962 -7 2 C-4.35261084 0.5393715 -3.10551666 0 0 0 Z " fill="#C65CC5" transform="translate(99,35)"/>
<path d="M0 0 C0 5.94 0 11.88 0 18 C-1.65 18.66 -3.3 19.32 -5 20 C-5 18.02 -5 16.04 -5 14 C-5.99 14 -6.98 14 -8 14 C-8 11.69 -8 9.38 -8 7 C-7.01 7 -6.02 7 -5 7 C-5 5.35 -5 3.7 -5 2 C-1.125 0 -1.125 0 0 0 Z " fill="#737656" transform="translate(134,53)"/>
<path d="M0 0 C0.66 0.33 1.32 0.66 2 1 C1.67 1.99 1.34 2.98 1 4 C-1.5625 5.1875 -1.5625 5.1875 -4 6 C-3.01 6.66 -2.02 7.32 -1 8 C-1.33 8.99 -1.66 9.98 -2 11 C-5.6094882 11.82183247 -8.98694361 12.16225746 -12.6875 12.1875 C-13.64011719 12.20167969 -14.59273437 12.21585938 -15.57421875 12.23046875 C-18 12 -18 12 -20 10 C-16.71482943 8.29962416 -13.42091861 6.61693465 -10.125 4.9375 C-9.18785156 4.45216797 -8.25070313 3.96683594 -7.28515625 3.46679688 C-6.38925781 3.01240234 -5.49335937 2.55800781 -4.5703125 2.08984375 C-3.32918701 1.45357056 -3.32918701 1.45357056 -2.06298828 0.80444336 C-1.38220215 0.53897705 -0.70141602 0.27351074 0 0 Z " fill="#7E348A" transform="translate(77,21)"/>
<path d="M0 0 C2.97 0.33 5.94 0.66 9 1 C9 1.99 9 2.98 9 4 C10.65 3.34 12.3 2.68 14 2 C14 3.98 14 5.96 14 8 C15.98 7.34 17.96 6.68 20 6 C20 7.32 20 8.64 20 10 C18.02 10.66 16.04 11.32 14 12 C13.67 11.34 13.34 10.68 13 10 C12.34 10 11.68 10 11 10 C10.67 9.34 10.34 8.68 10 8 C9.34 8 8.68 8 8 8 C8 9.32 8 10.64 8 12 C7.34 12 6.68 12 6 12 C5.938125 11.05125 5.87625 10.1025 5.8125 9.125 C5.544375 8.09375 5.27625 7.0625 5 6 C2.53744315 4.54708727 2.53744315 4.54708727 0 4 C0 2.68 0 1.36 0 0 Z " fill="#625C46" transform="translate(83,91)"/>
<path d="M0 0 C0.66 0.33 1.32 0.66 2 1 C2 5.29 2 9.58 2 14 C0.68 13.67 -0.64 13.34 -2 13 C-2.33 13.66 -2.66 14.32 -3 15 C-3.66 15 -4.32 15 -5 15 C-5.33 15.66 -5.66 16.32 -6 17 C-6.99 16.67 -7.98 16.34 -9 16 C-9 15.01 -9 14.02 -9 13 C-8.01 13 -7.02 13 -6 13 C-6 12.34 -6 11.68 -6 11 C-5.34 11 -4.68 11 -4 11 C-4.33 10.401875 -4.66 9.80375 -5 9.1875 C-6 7 -6 7 -6 4 C-3 2 -3 2 0 2 C0 1.34 0 0.68 0 0 Z " fill="#64286E" transform="translate(86,61)"/>
<path d="M0 0 C-1.485 1.485 -1.485 1.485 -3 3 C-2.67 3.66 -2.34 4.32 -2 5 C-2.66 5 -3.32 5 -4 5 C-4 5.66 -4 6.32 -4 7 C-2.68 7.33 -1.36 7.66 0 8 C-0.54723683 11.37462715 -1.0549 13.08235 -3 16 C-6.625 16.1875 -6.625 16.1875 -10 16 C-9.34 14.02 -8.68 12.04 -8 10 C-7.34 10 -6.68 10 -6 10 C-6 9.34 -6 8.68 -6 8 C-7.32 8.33 -8.64 8.66 -10 9 C-9.690625 8.4225 -9.38125 7.845 -9.0625 7.25 C-7.91850217 5.08319538 -7.91850217 5.08319538 -7.625 2.875 C-7 1 -7 1 -5.125 -0.3125 C-3 -1 -3 -1 0 0 Z " fill="#B552BB" transform="translate(105,27)"/>
<path d="M0 0 C0.33 0.66 0.66 1.32 1 2 C1.66 2 2.32 2 3 2 C5 4 5 4 5.125 7.625 C5.08375 8.73875 5.0425 9.8525 5 11 C3.35 11.66 1.7 12.32 0 13 C0 14.65 0 16.3 0 18 C-0.99 18 -1.98 18 -3 18 C-3 17.01 -3 16.02 -3 15 C-2.34 15 -1.68 15 -1 15 C-1 13.68 -1 12.36 -1 11 C-1.66 11 -2.32 11 -3 11 C-3.33 7.7 -3.66 4.4 -4 1 C-2 0 -2 0 0 0 Z " fill="#3D1842" transform="translate(129,42)"/>
<path d="M0 0 C2.97 0.495 2.97 0.495 6 1 C5 4 5 4 2 6 C1.67 6.99 1.34 7.98 1 9 C-2.37705625 8.46274105 -5.696686 7.88935377 -9 7 C-8.01 8.485 -8.01 8.485 -7 10 C-7 10.99 -7 11.98 -7 13 C-13.70212766 11.06382979 -13.70212766 11.06382979 -16 8 C-16 7.34 -16 6.68 -16 6 C-14.89591797 5.94392578 -14.89591797 5.94392578 -13.76953125 5.88671875 C-6.34881086 5.53779165 -6.34881086 5.53779165 0 2 C0 1.34 0 0.68 0 0 Z " fill="#5B2165" transform="translate(67,38)"/>
<path d="M0 0 C2.64 1.32 5.28 2.64 8 4 C8 4.99 8 5.98 8 7 C7.01 7 6.02 7 5 7 C5 7.66 5 8.32 5 9 C4.34 9 3.68 9 3 9 C3 9.99 3 10.98 3 12 C0.125 11.3125 0.125 11.3125 -3 10 C-4.3125 7.625 -4.3125 7.625 -5 5 C-5.20625 4.236875 -5.4125 3.47375 -5.625 2.6875 C-5.74875 2.130625 -5.8725 1.57375 -6 1 C-4.02 1.66 -2.04 2.32 0 3 C0 2.01 0 1.02 0 0 Z " fill="#B0B686" transform="translate(80,103)"/>
<path d="M0 0 C0.33 0.66 0.66 1.32 1 2 C1.66 2 2.32 2 3 2 C3 4.31 3 6.62 3 9 C2.01 9.33 1.02 9.66 0 10 C0 9.01 0 8.02 0 7 C-0.99 7.495 -0.99 7.495 -2 8 C-2.103125 8.639375 -2.20625 9.27875 -2.3125 9.9375 C-2.539375 10.618125 -2.76625 11.29875 -3 12 C-5.5625 13.25 -5.5625 13.25 -8 14 C-8 11.69 -8 9.38 -8 7 C-7.01 6.67 -6.02 6.34 -5 6 C-4.87625 5.195625 -4.7525 4.39125 -4.625 3.5625 C-4.41875 2.716875 -4.2125 1.87125 -4 1 C-2 0 -2 0 0 0 Z " fill="#502357" transform="translate(117,55)"/>
<path d="M0 0 C1.65 0 3.3 0 5 0 C5 2.31 5 4.62 5 7 C4.01 6.67 3.02 6.34 2 6 C2.33 9.63 2.66 13.26 3 17 C4.423125 17.433125 4.423125 17.433125 5.875 17.875 C9 19 9 19 11 21 C10.67 21.99 10.34 22.98 10 24 C7.36 22.68 4.72 21.36 2 20 C2 18.68 2 17.36 2 16 C1.34 16 0.68 16 0 16 C0 10.72 0 5.44 0 0 Z " fill="#622A69" transform="translate(43,38)"/>
<path d="M0 0 C0 1.32 0 2.64 0 4 C0.99 4 1.98 4 3 4 C2.67 3.01 2.34 2.02 2 1 C2.99 0.67 3.98 0.34 5 0 C7.1875 1.4375 7.1875 1.4375 9 3 C5.01512203 5.94121945 2.0205861 7.89753906 -3 8 C-5.49512794 7.20357532 -7.6433072 6.1783464 -10 5 C-7.31217681 1.88778367 -4.19734673 0 0 0 Z " fill="#BA56BE" transform="translate(119,36)"/>
<path d="M0 0 C0.33 1.65 0.66 3.3 1 5 C2.32 4.67 3.64 4.34 5 4 C5 6.31 5 8.62 5 11 C3.35 11.66 1.7 12.32 0 13 C-0.33 12.34 -0.66 11.68 -1 11 C-1.66 11 -2.32 11 -3 11 C-4.23921302 8.02588876 -5.30058404 5.14737182 -6 2 C-3 0 -3 0 0 0 Z " fill="#544642" transform="translate(129,67)"/>
<path d="M0 0 C2.475 0.99 2.475 0.99 5 2 C4.67 2.99 4.34 3.98 4 5 C3.34 4.67 2.68 4.34 2 4 C2 6.31 2 8.62 2 11 C1.01 10.67 0.02 10.34 -1 10 C-1.33 10.99 -1.66 11.98 -2 13 C-3.32 12.34 -4.64 11.68 -6 11 C-6 9.68 -6 8.36 -6 7 C-5.34 7 -4.68 7 -4 7 C-4 5.02 -4 3.04 -4 1 C-2.68 1.33 -1.36 1.66 0 2 C0 1.34 0 0.68 0 0 Z " fill="#813A8B" transform="translate(66,58)"/>
<path d="M0 0 C0.928125 0.33 1.85625 0.66 2.8125 1 C5.92029291 2.14967004 5.92029291 2.14967004 9 2 C9.66 2 10.32 2 11 2 C11.433125 2.9590625 11.433125 2.9590625 11.875 3.9375 C12.82823451 6.15206079 12.82823451 6.15206079 15 7 C14.67 7.99 14.34 8.98 14 10 C13.34 10 12.68 10 12 10 C12 10.66 12 11.32 12 12 C9.0625 11.25 9.0625 11.25 6 10 C5.4375 8.0625 5.4375 8.0625 5 6 C3.34051852 4.98812105 1.67419438 3.9873454 0 3 C0 2.01 0 1.02 0 0 Z " fill="#959269" transform="translate(51,89)"/>
<path d="M0 0 C2.475 0.99 2.475 0.99 5 2 C5 4.31 5 6.62 5 9 C4.34 9 3.68 9 3 9 C3 9.66 3 10.32 3 11 C-2.75 9.125 -2.75 9.125 -5 8 C-5 5.69 -5 3.38 -5 1 C-4.34 1 -3.68 1 -3 1 C-2.814375 1.9590625 -2.814375 1.9590625 -2.625 2.9375 C-2.315625 3.9584375 -2.315625 3.9584375 -2 5 C-1.34 5.33 -0.68 5.66 0 6 C0 4.02 0 2.04 0 0 Z " fill="#9B4898" transform="translate(51,47)"/>
<path d="M0 0 C0.99 0.33 1.98 0.66 3 1 C3 3.31 3 5.62 3 8 C2.01 7.67 1.02 7.34 0 7 C-0.33 7.99 -0.66 8.98 -1 10 C-3.475 9.01 -3.475 9.01 -6 8 C-6.33 8.66 -6.66 9.32 -7 10 C-8.32 9.34 -9.64 8.68 -11 8 C-11 7.01 -11 6.02 -11 5 C-9.68 5.33 -8.36 5.66 -7 6 C-6.67 5.34 -6.34 4.68 -6 4 C-5.34 4 -4.68 4 -4 4 C-3.67 3.34 -3.34 2.68 -3 2 C-2.34 2 -1.68 2 -1 2 C-0.67 1.34 -0.34 0.68 0 0 Z " fill="#8F8766" transform="translate(71,64)"/>
<path d="M0 0 C1.98 0.66 3.96 1.32 6 2 C6 4.64 6 7.28 6 10 C4.02 9.01 2.04 8.02 0 7 C-0.33 7.99 -0.66 8.98 -1 10 C-2.32 9.34 -3.64 8.68 -5 8 C-5.33 8.99 -5.66 9.98 -6 11 C-6 8.69 -6 6.38 -6 4 C-4.02 4.66 -2.04 5.32 0 6 C0 4.02 0 2.04 0 0 Z " fill="#969469" transform="translate(71,78)"/>
<path d="M0 0 C1.98 0.66 3.96 1.32 6 2 C6 1.34 6 0.68 6 0 C6.66 0 7.32 0 8 0 C8 4.62 8 9.24 8 14 C6.35 13.01 4.7 12.02 3 11 C2.6875 7.3125 2.6875 7.3125 3 4 C2.01 3.67 1.02 3.34 0 3 C0 2.01 0 1.02 0 0 Z " fill="#A5A976" transform="translate(80,79)"/>
<path d="M0 0 C0.69738281 0.00902344 1.39476563 0.01804687 2.11328125 0.02734375 C3.82566958 0.05080112 5.53788004 0.08666896 7.25 0.125 C7.25 1.79166667 7.25 3.45833333 7.25 5.125 C6.21552734 4.99931641 6.21552734 4.99931641 5.16015625 4.87109375 C-1.0493459 4.19818474 -6.57141232 4.2134051 -12.75 5.125 C-11.75 2.125 -11.75 2.125 -10.171875 0.9453125 C-6.7874856 -0.20101294 -3.52604471 -0.08665138 0 0 Z " fill="#53195C" transform="translate(62.75,31.875)"/>
<path d="M0 0 C0.66 0 1.32 0 2 0 C2 0.99 2 1.98 2 3 C3.98 2.01 5.96 1.02 8 0 C8 2.31 8 4.62 8 7 C4.04 8.98 4.04 8.98 0 11 C-0.19406478 9.35492782 -0.38007935 7.70890406 -0.5625 6.0625 C-0.66691406 5.14597656 -0.77132812 4.22945313 -0.87890625 3.28515625 C-0.91886719 2.53105469 -0.95882812 1.77695313 -1 1 C-0.67 0.67 -0.34 0.34 0 0 Z " fill="#6A6A4B" transform="translate(89,75)"/>
<path d="M0 0 C0.3403125 0.8971875 0.3403125 0.8971875 0.6875 1.8125 C2.33307014 4.5551169 4.27035797 5.41968093 7 7 C7 7.66 7 8.32 7 9 C5.02 9 3.04 9 1 9 C0.67 9.66 0.34 10.32 0 11 C-0.66 10.67 -1.32 10.34 -2 10 C-1.67 9.34 -1.34 8.68 -1 8 C-3.97 8 -6.94 8 -10 8 C-10.33 7.01 -10.66 6.02 -11 5 C-7.7 5 -4.4 5 -1 5 C-0.67 3.35 -0.34 1.7 0 0 Z " fill="#E2E2E2" transform="translate(176,70)"/>
<path d="M0 0 C0 2.31 0 4.62 0 7 C-1.98 7.66 -3.96 8.32 -6 9 C-6 11.64 -6 14.28 -6 17 C-6.66 17 -7.32 17 -8 17 C-8.38393977 6.01505646 -8.38393977 6.01505646 -6 2 C-3 0 -3 0 0 0 Z " fill="#361639" transform="translate(117,73)"/>
<path d="M0 0 C0.99 0.66 1.98 1.32 3 2 C2.814375 2.61875 2.62875 3.2375 2.4375 3.875 C1.76313824 6.04160178 1.76313824 6.04160178 3 8 C2.34 8.66 1.68 9.32 1 10 C0.01 9.34 -0.98 8.68 -2 8 C-4.0492094 7.54860541 -4.0492094 7.54860541 -6.1875 7.375 C-7.445625 7.25125 -8.70375 7.1275 -10 7 C-9.125 2.125 -9.125 2.125 -8 1 C-6.33382885 0.95936168 -4.66611905 0.957279 -3 1 C-3 1.66 -3 2.32 -3 3 C-4.32 3.33 -5.64 3.66 -7 4 C-7 4.66 -7 5.32 -7 6 C-4.00007271 4.70855022 -4.00007271 4.70855022 -1 3 C-0.67 2.01 -0.34 1.02 0 0 Z " fill="#7F318B" transform="translate(88,24)"/>
<path d="M0 0 C0.66 0.33 1.32 0.66 2 1 C1.98839844 1.67546875 1.97679687 2.3509375 1.96484375 3.046875 C1.95582031 3.93890625 1.94679688 4.8309375 1.9375 5.75 C1.92589844 6.63171875 1.91429687 7.5134375 1.90234375 8.421875 C1.99173802 10.7818838 2.33087179 12.74498524 3 15 C2.34 15 1.68 15 1 15 C0.67 15.66 0.34 16.32 0 17 C0 16.01 0 15.02 0 14 C-0.66 14 -1.32 14 -2 14 C-2.33 14.66 -2.66 15.32 -3 16 C-5.64 14.68 -8.28 13.36 -11 12 C-10.67 10.68 -10.34 9.36 -10 8 C-6.7 9.65 -3.4 11.3 0 13 C0 8.71 0 4.42 0 0 Z " fill="#979071" transform="translate(62,77)"/>
<path d="M0 0 C4.66989808 0.26685132 8.09833692 2.62840087 12 5 C11.75 7.375 11.75 7.375 11 10 C8.9375 11.3125 8.9375 11.3125 7 12 C6.34 11.01 5.68 10.02 5 9 C5.99 8.67 6.98 8.34 8 8 C8.33 7.34 8.66 6.68 9 6 C8.21625 6.20625 7.4325 6.4125 6.625 6.625 C5.75875 6.74875 4.8925 6.8725 4 7 C3.34 6.34 2.68 5.68 2 5 C2.33 4.34 2.66 3.68 3 3 C1.35 2.67 -0.3 2.34 -2 2 C-1.34 1.34 -0.68 0.68 0 0 Z " fill="#74327F" transform="translate(87,16)"/>
<path d="M0 0 C0.99 0.33 1.98 0.66 3 1 C1.87548273 3.9719385 0.77706209 6.33440687 -1 9 C-1.165 9.70125 -1.33 10.4025 -1.5 11.125 C-1.665 11.74375 -1.83 12.3625 -2 13 C-2.99 13.495 -2.99 13.495 -4 14 C-4 13.34 -4 12.68 -4 12 C-5.32 11.34 -6.64 10.68 -8 10 C-7.34 10 -6.68 10 -6 10 C-6 9.34 -6 8.68 -6 8 C-6.99 7.67 -7.98 7.34 -9 7 C-3.375 4 -3.375 4 0 4 C0 3.34 0 2.68 0 2 C-0.66 1.67 -1.32 1.34 -2 1 C-1.34 0.67 -0.68 0.34 0 0 Z " fill="#81328D" transform="translate(94,30)"/>
<path d="M0 0 C0.33 1.65 0.66 3.3 1 5 C-1.64738916 6.4606285 -2.89448334 7 -6 7 C-6 6.34 -6 5.68 -6 5 C-4.68 4.67 -3.36 4.34 -2 4 C-2 3.34 -2 2.68 -2 2 C-3.98 2.66 -5.96 3.32 -8 4 C-8 4.99 -8 5.98 -8 7 C-12.75 6.25 -12.75 6.25 -15 4 C-9.60931587 0.40621058 -6.46326465 -0.45356243 0 0 Z " fill="#C55CC3" transform="translate(87,23)"/>
<path d="M0 0 C0.99 0.33 1.98 0.66 3 1 C3.144375 1.639375 3.28875 2.27875 3.4375 2.9375 C3.80104993 5.20311706 3.80104993 5.20311706 6.0625 6.25 C6.701875 6.4975 7.34125 6.745 8 7 C8 9.31 8 11.62 8 14 C7.01 13.67 6.02 13.34 5 13 C4.6278958 11.67696283 4.29369827 10.34262065 4 9 C3.34 8.67 2.68 8.34 2 8 C1.67 8.99 1.34 9.98 1 11 C0 10 0 10 -0.09765625 7.71484375 C-0.08605469 6.79832031 -0.07445312 5.88179688 -0.0625 4.9375 C-0.05347656 4.01839844 -0.04445312 3.09929687 -0.03515625 2.15234375 C-0.02355469 1.44207031 -0.01195312 0.73179688 0 0 Z " fill="#86706B" transform="translate(43,71)"/>
<path d="M0 0 C0.99 0 1.98 0 3 0 C3 0.66 3 1.32 3 2 C3.66 2 4.32 2 5 2 C5.125 7.75 5.125 7.75 4 10 C1.6859378 10.73075648 -0.64828869 11.40138258 -3 12 C-2.67 10.68 -2.34 9.36 -2 8 C-1.34 8 -0.68 8 0 8 C0 5.36 0 2.72 0 0 Z " fill="#2D0F32" transform="translate(103,61)"/>
<path d="M0 0 C0.66 0.33 1.32 0.66 2 1 C1.67 1.99 1.34 2.98 1 4 C-0.65 3.67 -2.3 3.34 -4 3 C-4 3.99 -4 4.98 -4 6 C-4.99 6 -5.98 6 -7 6 C-7 4.68 -7 3.36 -7 2 C-9.64 2.99 -12.28 3.98 -15 5 C-15 4.01 -15 3.02 -15 2 C-9.75470658 -1.36236758 -5.87685297 -1.26940024 0 0 Z " fill="#8F3E9C" transform="translate(126,34)"/>
<path d="M0 0 C0.33 2.31 0.66 4.62 1 7 C-2.465 8.485 -2.465 8.485 -6 10 C-6 9.01 -6 8.02 -6 7 C-6.99 7 -7.98 7 -9 7 C-7.87838407 3.74731379 -7.01101988 3.00629707 -3.9375 1.25 C-1 0 -1 0 0 0 Z " fill="#747757" transform="translate(129,91)"/>
<path d="M0 0 C5.75 1.75 5.75 1.75 8 4 C8.125 7.625 8.125 7.625 8 11 C3.15544041 9.59067358 3.15544041 9.59067358 1 8 C0.030782 5.20799134 0.04927909 3.00602421 0 0 Z " fill="#AFB484" transform="translate(46,90)"/>
<path d="M0 0 C0.33 0.99 0.66 1.98 1 3 C1.66 3 2.32 3 3 3 C3 4.32 3 5.64 3 7 C2.34 7 1.68 7 1 7 C1 8.32 1 9.64 1 11 C0.01 11.33 -0.98 11.66 -2 12 C-2 10.02 -2 8.04 -2 6 C-2.99 6 -3.98 6 -5 6 C-4.75 4.125 -4.75 4.125 -4 2 C-1.9375 0.75 -1.9375 0.75 0 0 Z " fill="#300F36" transform="translate(125,50)"/>
<path d="M0 0 C1.98 0.66 3.96 1.32 6 2 C6 4.64 6 7.28 6 10 C5.01 10.495 5.01 10.495 4 11 C4 10.01 4 9.02 4 8 C3.01 8.33 2.02 8.66 1 9 C0.67 8.01 0.34 7.02 0 6 C-0.66 5.34 -1.32 4.68 -2 4 C-1.34 2.68 -0.68 1.36 0 0 Z " fill="#682D6F" transform="translate(128,36)"/>
<path d="M0 0 C2.00720923 0.28674418 4.0085944 0.61866701 6 1 C6.042721 2.66611905 6.04063832 4.33382885 6 6 C5 7 5 7 2.5 7.125 C0 7 0 7 -1 6 C-1.125 3.5 -1.125 3.5 -1 1 C-0.67 0.67 -0.34 0.34 0 0 Z " fill="#E6E6E6" transform="translate(255,71)"/>
<path d="M0 0 C0 2.31 0 4.62 0 7 C-0.99 7.33 -1.98 7.66 -3 8 C-3.33 7.34 -3.66 6.68 -4 6 C-4.33 6.99 -4.66 7.98 -5 9 C-4.34 9 -3.68 9 -3 9 C-3.33 10.32 -3.66 11.64 -4 13 C-4.66 13 -5.32 13 -6 13 C-6.28526991 9.62113642 -6.45553116 6.36767677 -6 3 C-2.55882353 0 -2.55882353 0 0 0 Z " fill="#502357" transform="translate(97,61)"/>
<path d="M0 0 C2.375 1.0625 2.375 1.0625 4 2 C4 2.66 4 3.32 4 4 C2.35 4.33 0.7 4.66 -1 5 C-1.33 4.34 -1.66 3.68 -2 3 C-6.455 3.495 -6.455 3.495 -11 4 C-11 3.34 -11 2.68 -11 2 C-7.08753471 -1.10695773 -4.7586463 -1.31622132 0 0 Z " fill="#BE58C1" transform="translate(81,43)"/>
<path d="M0 0 C0.33 0.66 0.66 1.32 1 2 C-4.29230769 5.07692308 -4.29230769 5.07692308 -7.875 4.6875 C-8.57625 4.460625 -9.2775 4.23375 -10 4 C-9.6875 2.0625 -9.6875 2.0625 -9 0 C-5.49270578 -1.16909807 -3.55692677 -0.85056945 0 0 Z " fill="#7A2E86" transform="translate(67,39)"/>
<path d="M0 0 C0.66 0 1.32 0 2 0 C2 1.32 2 2.64 2 4 C3.98 4.66 5.96 5.32 8 6 C7.67 7.32 7.34 8.64 7 10 C4.525 9.01 4.525 9.01 2 8 C2 8.66 2 9.32 2 10 C1.34 10 0.68 10 0 10 C0 6.7 0 3.4 0 0 Z " fill="#88835F" transform="translate(43,54)"/>
<path d="M0 0 C0.53625 0.226875 1.0725 0.45375 1.625 0.6875 C1.625 1.3475 1.625 2.0075 1.625 2.6875 C3.08333358 4.31264468 3.08333358 4.31264468 4.625 5.6875 C3.02167209 5.76871924 1.41715974 5.82679134 -0.1875 5.875 C-1.08082031 5.90980469 -1.97414063 5.94460937 -2.89453125 5.98046875 C-5.79147515 5.63831002 -6.60055028 4.93356427 -8.375 2.6875 C-2.95961538 -0.38942308 -2.95961538 -0.38942308 0 0 Z " fill="#5D1E66" transform="translate(109.375,38.3125)"/>
<path d="M0 0 C-0.66 1.32 -1.32 2.64 -2 4 C-3.32 3.67 -4.64 3.34 -6 3 C-6 3.99 -6 4.98 -6 6 C-8.97 5.505 -8.97 5.505 -12 5 C-12 4.01 -12 3.02 -12 2 C-8.09971775 -0.60018816 -4.52565431 -0.15085514 0 0 Z " fill="#61226B" transform="translate(91,18)"/>
<path d="M0 0 C0.66 0.33 1.32 0.66 2 1 C2 4.3 2 7.6 2 11 C-3.75 9.125 -3.75 9.125 -6 8 C-5.67 6.68 -5.34 5.36 -5 4 C-3.35 4.99 -1.7 5.98 0 7 C0 4.69 0 2.38 0 0 Z " fill="#B3B788" transform="translate(60,79)"/>
<path d="M0 0 C0.99 0 1.98 0 3 0 C3 3.63 3 7.26 3 11 C2.01 11.495 2.01 11.495 1 12 C0.7525 11.21625 0.505 10.4325 0.25 9.625 C-1.15389099 6.67682892 -2.00675737 6.0975223 -5 5 C-5 4.34 -5 3.68 -5 3 C-2.525 3.495 -2.525 3.495 0 4 C0 2.68 0 1.36 0 0 Z " fill="#D0D0D0" transform="translate(187,67)"/>
<path d="M0 0 C2.58921478 0.70124567 4.68709509 1.47813178 7 2.8125 C7 3.4725 7 4.1325 7 4.8125 C-2.41002278 5.1815205 -2.41002278 5.1815205 -7 2.8125 C-4.5085127 0.41683914 -3.52285142 -0.22017821 0 0 Z " fill="#8F3B9C" transform="translate(78,45.1875)"/>
<path d="M0 0 C1.32 0.33 2.64 0.66 4 1 C3.78515625 2.890625 3.78515625 2.890625 3 5 C0.93359375 6.046875 0.93359375 6.046875 -1.5625 6.75 C-2.80193359 7.11351562 -2.80193359 7.11351562 -4.06640625 7.484375 C-5.02353516 7.73960938 -5.02353516 7.73960938 -6 8 C-6.33 6.68 -6.66 5.36 -7 4 C-6.401875 3.855625 -5.80375 3.71125 -5.1875 3.5625 C-3.43849596 3.1127561 -1.71322977 2.57107659 0 2 C0 1.34 0 0.68 0 0 Z " fill="#AD4FB3" transform="translate(90,55)"/>
<path d="M0 0 C-0.33 1.32 -0.66 2.64 -1 4 C-1.66 4 -2.32 4 -3 4 C-3.33 5.65 -3.66 7.3 -4 9 C-5.32 9.33 -6.64 9.66 -8 10 C-7.66666667 8.66666667 -7.33333333 7.33333333 -7 6 C-6.87625 5.29875 -6.7525 4.5975 -6.625 3.875 C-5.4716106 0.41483179 -3.38535408 0 0 0 Z " fill="#707453" transform="translate(117,87)"/>
<path d="M0 0 C0.33 0 0.66 0 1 0 C1.33 1.98 1.66 3.96 2 6 C3.32 5.67 4.64 5.34 6 5 C5.67 6.32 5.34 7.64 5 9 C4.34 9 3.68 9 3 9 C2.67 10.65 2.34 12.3 2 14 C1.34 14 0.68 14 0 14 C0 9.38 0 4.76 0 0 Z " fill="#7C7F5C" transform="translate(88,79)"/>
<path d="M0 0 C0.99 0.33 1.98 0.66 3 1 C3 2.32 3 3.64 3 5 C3.99 5.33 4.98 5.66 6 6 C6 6.99 6 7.98 6 9 C0.25 7.125 0.25 7.125 -2 6 C-1.49396008 3.83125748 -1.00016187 2.00032373 0 0 Z " fill="#9A9B6C" transform="translate(45,79)"/>
<path d="M0 0 C0.33 0 0.66 0 1 0 C1.125 2.875 1.125 2.875 1 6 C0.34 6.66 -0.32 7.32 -1 8 C-1.33 7.34 -1.66 6.68 -2 6 C-4.64 6 -7.28 6 -10 6 C-10.33 5.01 -10.66 4.02 -11 3 C-7.37 3 -3.74 3 0 3 C0 2.01 0 1.02 0 0 Z " fill="#DCDCDC" transform="translate(248,72)"/>
<path d="M0 0 C2 2 2 2 2 4 C3.65 4.33 5.3 4.66 7 5 C7 4.01 7 3.02 7 2 C8.32 2.33 9.64 2.66 11 3 C10.01 3.495 10.01 3.495 9 4 C8.67 4.99 8.34 5.98 8 7 C0.25 7.125 0.25 7.125 -2 6 C-2 4.35 -2 2.7 -2 1 C-1.34 0.67 -0.68 0.34 0 0 Z " fill="#81328D" transform="translate(89,44)"/>
<path d="M0 0 C0.33 0 0.66 0 1 0 C0.67 4.62 0.34 9.24 0 14 C-2.475 13.01 -2.475 13.01 -5 12 C-5 10.68 -5 9.36 -5 8 C-4.34 8 -3.68 8 -3 8 C-3 7.34 -3 6.68 -3 6 C-2.01 6 -1.02 6 0 6 C0 4.02 0 2.04 0 0 Z " fill="#97946D" transform="translate(88,104)"/>
<path d="M0 0 C7.38461538 -0.36923077 7.38461538 -0.36923077 10.5 1.5 C10.995 1.995 11.49 2.49 12 3 C10 5 10 5 6.875 5.125 C5.92625 5.08375 4.9775 5.0425 4 5 C4 4.01 4 3.02 4 2 C2.35 2 0.7 2 -1 2 C-0.67 1.34 -0.34 0.68 0 0 Z " fill="#B854BF" transform="translate(73,52)"/>
<path d="M0 0 C0.33 1.32 0.66 2.64 1 4 C0.01 4.495 0.01 4.495 -1 5 C-1.103125 5.639375 -1.20625 6.27875 -1.3125 6.9375 C-1.539375 7.618125 -1.76625 8.29875 -2 9 C-4.5625 10.25 -4.5625 10.25 -7 11 C-7 9.68 -7 8.36 -7 7 C-6.01 7 -5.02 7 -4 7 C-4 5.35 -4 3.7 -4 2 C-2.68 1.34 -1.36 0.68 0 0 Z " fill="#625F45" transform="translate(133,53)"/>
<path d="M0 0 C2.31 0.66 4.62 1.32 7 2 C6.67 4.31 6.34 6.62 6 9 C5.01 8.67 4.02 8.34 3 8 C3 6.68 3 5.36 3 4 C2.34 4 1.68 4 1 4 C0.67 4.99 0.34 5.98 0 7 C0 4.69 0 2.38 0 0 Z " fill="#773380" transform="translate(45,44)"/>
<path d="M0 0 C0.86625 -0.01675781 1.7325 -0.03351562 2.625 -0.05078125 C5.4116129 0.37546053 6.26608617 1.15081137 8 3.3125 C7.01 3.8075 7.01 3.8075 6 4.3125 C5.4225 3.9825 4.845 3.6525 4.25 3.3125 C0.36931651 1.58775178 -3.12227932 3.01992644 -7 4.3125 C-7.33 4.9725 -7.66 5.6325 -8 6.3125 C-8 4.9925 -8 3.6725 -8 2.3125 C-4.78169935 0.16696623 -3.73213493 0.01666132 0 0 Z " fill="#8A3796" transform="translate(77,40.6875)"/>
<path d="M0 0 C0.66 0 1.32 0 2 0 C2 3.3 2 6.6 2 10 C1.01 10.495 1.01 10.495 0 11 C0 10.01 0 9.02 0 8 C-0.99 8.33 -1.98 8.66 -3 9 C-3 7.68 -3 6.36 -3 5 C-2.34 5 -1.68 5 -1 5 C-0.67 3.35 -0.34 1.7 0 0 Z " fill="#6B6D4B" transform="translate(132,57)"/>
<path d="M0 0 C1.65 0 3.3 0 5 0 C5 2.31 5 4.62 5 7 C4.01 6.67 3.02 6.34 2 6 C2 6.99 2 7.98 2 9 C1.34 9 0.68 9 0 9 C0 6.03 0 3.06 0 0 Z " fill="#4B1954" transform="translate(43,38)"/>
<path d="M0 0 C0.33 0.99 0.66 1.98 1 3 C2.98 2.34 4.96 1.68 7 1 C7 2.32 7 3.64 7 5 C5.02 5.66 3.04 6.32 1 7 C0.67 6.34 0.34 5.68 0 5 C-0.66 5 -1.32 5 -2 5 C-1.125 1.125 -1.125 1.125 0 0 Z " fill="#4A284C" transform="translate(96,96)"/>
<path d="M0 0 C0 2.31 0 4.62 0 7 C-1.65 7.33 -3.3 7.66 -5 8 C-5.1875 5.125 -5.1875 5.125 -5 2 C-2 0 -2 0 0 0 Z " fill="#69664A" transform="translate(134,89)"/>
<path d="M0 0 C2 1 2 1 2.625 2.625 C3.12095645 5.7660575 3.06103811 8.82601831 3 12 C0.525 11.01 0.525 11.01 -2 10 C-2 8.68 -2 7.36 -2 6 C-1.34 6 -0.68 6 0 6 C0 4.02 0 2.04 0 0 Z " fill="#71317A" transform="translate(62,59)"/>
<path d="M0 0 C0 1.32 0 2.64 0 4 C-0.66 4 -1.32 4 -2 4 C-2 5.32 -2 6.64 -2 8 C-3.32 8.33 -4.64 8.66 -6 9 C-5.6875 5.625 -5.6875 5.625 -5 2 C-2 0 -2 0 0 0 Z " fill="#37133D" transform="translate(117,48)"/>
<path d="M0 0 C3.71599191 -0.20086443 4.77208445 -0.1519437 8 2 C7.34 3.65 6.68 5.3 6 7 C5.67 6.01 5.34 5.02 5 4 C3.02 4.99 3.02 4.99 1 6 C0.67 4.02 0.34 2.04 0 0 Z " fill="#5B2365" transform="translate(104,48)"/>
<path d="M0 0 C1.32 0.66 2.64 1.32 4 2 C3.67 2.66 3.34 3.32 3 4 C2.01 4 1.02 4 0 4 C0 7.3 0 10.6 0 14 C-0.66 13.67 -1.32 13.34 -2 13 C-2 9.7 -2 6.4 -2 3 C-1.34 3 -0.68 3 0 3 C0 2.01 0 1.02 0 0 Z " fill="#66306B" transform="translate(65,75)"/>
<path d="M0 0 C1.98 0.66 3.96 1.32 6 2 C4.5625 4.0625 4.5625 4.0625 2 6 C-1.07583023 6.05823431 -3.98735648 5.59222907 -7 5 C-5.68 4.01 -4.36 3.02 -3 2 C-3 2.66 -3 3.32 -3 4 C-2.01 4 -1.02 4 0 4 C-0.33 3.01 -0.66 2.02 -1 1 C-0.67 0.67 -0.34 0.34 0 0 Z " fill="#B552BD" transform="translate(122,36)"/>
<path d="M0 0 C0 0.66 0 1.32 0 2 C-0.99 2.495 -0.99 2.495 -2 3 C-3.13350534 5.01669827 -3.13350534 5.01669827 -4 7 C-6.475 6.01 -6.475 6.01 -9 5 C-8.67 4.01 -8.34 3.02 -8 2 C-5.10441559 0.5522078 -3.25811062 0 0 0 Z " fill="#BB56BF" transform="translate(82,32)"/>
<path d="M0 0 C0.33 0.99 0.66 1.98 1 3 C1.99 2.67 2.98 2.34 4 2 C4 3.32 4 4.64 4 6 C2.02 6.66 0.04 7.32 -2 8 C-2 5.69 -2 3.38 -2 1 C-1.34 0.67 -0.68 0.34 0 0 Z " fill="#706E4F" transform="translate(90,110)"/>
<path d="M0 0 C2.475 0.495 2.475 0.495 5 1 C5 2.65 5 4.3 5 6 C3.35 6.33 1.7 6.66 0 7 C0 4.69 0 2.38 0 0 Z " fill="#E3E3E3" transform="translate(147,62)"/>
<path d="M0 0 C0 0.66 0 1.32 0 2 C-0.99 2.66 -1.98 3.32 -3 4 C-3.33 4.99 -3.66 5.98 -4 7 C-5.98 6.01 -7.96 5.02 -10 4 C-4.7826087 0 -4.7826087 0 0 0 Z " fill="#9C41A9" transform="translate(102,25)"/>
<path d="M0 0 C0.99 0.33 1.98 0.66 3 1 C3.3721042 2.32303717 3.70630173 3.65737935 4 5 C4.66 5.33 5.32 5.66 6 6 C5.67 7.32 5.34 8.64 5 10 C3.0625 9.5 3.0625 9.5 1 8 C0.31209578 5.30341548 0.18053536 2.7982981 0 0 Z " fill="#A7AB79" transform="translate(45,68)"/>
<path d="M0 0 C0 0.99 0 1.98 0 3 C-0.99 3.495 -0.99 3.495 -2 4 C-2.2165625 4.99 -2.2165625 4.99 -2.4375 6 C-2.623125 6.66 -2.80875 7.32 -3 8 C-3.99 8.33 -4.98 8.66 -6 9 C-6 6.69 -6 4.38 -6 2 C-2.25 0 -2.25 0 0 0 Z " fill="#35143A" transform="translate(123,63)"/>
<path d="M0 0 C3.63 0 7.26 0 11 0 C8 3 8 3 5.73828125 3.29296875 C4.93777344 3.25816406 4.13726562 3.22335938 3.3125 3.1875 C2.10013672 3.14689453 2.10013672 3.14689453 0.86328125 3.10546875 C-0.05904297 3.05326172 -0.05904297 3.05326172 -1 3 C-0.67 2.01 -0.34 1.02 0 0 Z " fill="#5B1D65" transform="translate(86,51)"/>
<path d="M0 0 C2.475 0.99 2.475 0.99 5 2 C5 2.99 5 3.98 5 5 C4.01 5 3.02 5 2 5 C2 5.66 2 6.32 2 7 C1.01 7 0.02 7 -1 7 C-0.67 4.69 -0.34 2.38 0 0 Z " fill="#A1A572" transform="translate(66,86)"/>
<path d="M0 0 C0.99 0.33 1.98 0.66 3 1 C1.515 2.485 1.515 2.485 0 4 C0.99 4.99 1.98 5.98 3 7 C0.69 7 -1.62 7 -4 7 C-3.39816251 4.97954558 -2.72693904 2.97888961 -2 1 C-1.34 0.67 -0.68 0.34 0 0 Z " fill="#8A3896" transform="translate(99,36)"/>
<path d="M0 0 C2.64 0.66 5.28 1.32 8 2 C8 2.99 8 3.98 8 5 C4.37673261 6.2077558 3.35853631 5.54311128 0 4 C0 2.68 0 1.36 0 0 Z " fill="#481F4C" transform="translate(83,91)"/>
<path d="M0 0 C0.33 0.99 0.66 1.98 1 3 C2.98 2.34 4.96 1.68 7 1 C6.8125 2.875 6.8125 2.875 6 5 C3.4375 6.25 3.4375 6.25 1 7 C1 6.01 1 5.02 1 4 C0.34 4 -0.32 4 -1 4 C-0.67 2.68 -0.34 1.36 0 0 Z " fill="#6A3265" transform="translate(93,66)"/>
<path d="M0 0 C2.475 0.99 2.475 0.99 5 2 C5 2.99 5 3.98 5 5 C4.34 5 3.68 5 3 5 C2.67 5.99 2.34 6.98 2 8 C1.01 7.34 0.02 6.68 -1 6 C-0.67 4.02 -0.34 2.04 0 0 Z " fill="#8E4192" transform="translate(51,47)"/>
<path d="M0 0 C2.97 0.495 2.97 0.495 6 1 C4.86695008 4.39914975 3.87481525 5.05254451 1 7 C0.34 6.67 -0.32 6.34 -1 6 C-0.67 4.02 -0.34 2.04 0 0 Z " fill="#63216D" transform="translate(67,38)"/>
<path d="M0 0 C1.01320313 0.17789062 1.01320313 0.17789062 2.046875 0.359375 C1.056875 0.854375 1.056875 0.854375 0.046875 1.359375 C0.046875 2.019375 0.046875 2.679375 0.046875 3.359375 C-0.613125 3.359375 -1.273125 3.359375 -1.953125 3.359375 C-1.953125 2.699375 -1.953125 2.039375 -1.953125 1.359375 C-3.0359375 1.854375 -3.0359375 1.854375 -4.140625 2.359375 C-6.97009927 3.36541029 -8.98207966 3.52914902 -11.953125 3.359375 C-8.63472464 -1.61822554 -5.34517294 -0.77242384 0 0 Z " fill="#A246AD" transform="translate(83.953125,30.640625)"/>
<path d="M0 0 C3.96 1.98 3.96 1.98 8 4 C8 4.99 8 5.98 8 7 C2.25 5.125 2.25 5.125 0 4 C0 2.68 0 1.36 0 0 Z " fill="#B3B888" transform="translate(80,103)"/>
<path d="M0 0 C0.99 0.33 1.98 0.66 3 1 C3 2.32 3 3.64 3 5 C3.66 5 4.32 5 5 5 C4.67 6.32 4.34 7.64 4 9 C2 7.875 2 7.875 0 6 C-0.25 2.8125 -0.25 2.8125 0 0 Z " fill="#ADB281" transform="translate(83,84)"/>
<path d="M0 0 C1.65 0.33 3.3 0.66 5 1 C5.33 2.32 5.66 3.64 6 5 C4.02 4.34 2.04 3.68 0 3 C-0.33 3.99 -0.66 4.98 -1 6 C-1.33 4.68 -1.66 3.36 -2 2 C-1.34 2 -0.68 2 0 2 C0 1.34 0 0.68 0 0 Z " fill="#AEB284" transform="translate(65,72)"/>
<path d="M0 0 C0.99 0.33 1.98 0.66 3 1 C2.67 1.99 2.34 2.98 2 4 C1.34 3.67 0.68 3.34 0 3 C-0.33 3.99 -0.66 4.98 -1 6 C-2.32 5.34 -3.64 4.68 -5 4 C-5 3.01 -5 2.02 -5 1 C-2.525 1.495 -2.525 1.495 0 2 C0 1.34 0 0.68 0 0 Z " fill="#B0B685" transform="translate(68,91)"/>
<path d="M0 0 C0.33 0 0.66 0 1 0 C1.144375 0.9075 1.28875 1.815 1.4375 2.75 C1.86409473 5.21476956 2.35074221 7.58847107 3 10 C1.35 10.66 -0.3 11.32 -2 12 C-1.34 8.04 -0.68 4.08 0 0 Z " fill="#481F4E" transform="translate(108,62)"/>
<path d="M0 0 C2.475 0.495 2.475 0.495 5 1 C5 2.32 5 3.64 5 5 C3.35 5.66 1.7 6.32 0 7 C0 4.69 0 2.38 0 0 Z " fill="#642F63" transform="translate(109,62)"/>
<path d="M0 0 C1.98 0.495 1.98 0.495 4 1 C4 3.33333333 4 5.66666667 4 8 C2.68 8 1.36 8 0 8 C-0.98120464 4.94736336 -0.98120464 3.05263664 0 0 Z " fill="#64226F" transform="translate(90,26)"/>
<path d="M0 0 C0.33 0 0.66 0 1 0 C1 3.3 1 6.6 1 10 C1.66 10 2.32 10 3 10 C2.38722388 12.96175123 1.74627478 14.38058783 0 17 C-1.22329074 13.33012779 -0.88021006 10.66032178 -0.5625 6.8125 C-0.46066406 5.54019531 -0.35882813 4.26789063 -0.25390625 2.95703125 C-0.17011719 1.98121094 -0.08632812 1.00539063 0 0 Z " fill="#615A4B" transform="translate(108,80)"/>
<path d="M0 0 C0.66 0 1.32 0 2 0 C2 1.32 2 2.64 2 4 C2.99 4.33 3.98 4.66 5 5 C5 5.99 5 6.98 5 8 C3.35 7.67 1.7 7.34 0 7 C0 4.69 0 2.38 0 0 Z " fill="#A09E70" transform="translate(43,89)"/>
<path d="M0 0 C1.98 0.66 3.96 1.32 6 2 C5.67 3.32 5.34 4.64 5 6 C3.68 5.34 2.36 4.68 1 4 C0.67 4.99 0.34 5.98 0 7 C0 4.69 0 2.38 0 0 Z " fill="#82785D" transform="translate(65,82)"/>
<path d="M0 0 C0 0.66 0 1.32 0 2 C-0.99 2.495 -0.99 2.495 -2 3 C-2 3.99 -2 4.98 -2 6 C-3.65 6 -5.3 6 -7 6 C-7 4.68 -7 3.36 -7 2 C-4.35261084 0.5393715 -3.10551666 0 0 0 Z " fill="#CC5FC6" transform="translate(99,35)"/>
<path d="M0 0 C0 1.32 0 2.64 0 4 C-2.64738916 5.4606285 -3.89448334 6 -7 6 C-7 5.34 -7 4.68 -7 4 C-5.68 3.67 -4.36 3.34 -3 3 C-3 2.34 -3 1.68 -3 1 C-3.99 0.67 -4.98 0.34 -6 0 C-3 -1 -3 -1 0 0 Z " fill="#A64AB4" transform="translate(88,24)"/>
<path d="M0 0 C0.66 0.33 1.32 0.66 2 1 C1.75 3.375 1.75 3.375 1 6 C-1.0625 7.3125 -1.0625 7.3125 -3 8 C-3.66 7.01 -4.32 6.02 -5 5 C-4.01 4.67 -3.02 4.34 -2 4 C-2 3.01 -2 2.02 -2 1 C-1.34 0.67 -0.68 0.34 0 0 Z " fill="#7E318B" transform="translate(97,20)"/>
<path d="M0 0 C-0.3125 1.9375 -0.3125 1.9375 -1 4 C-1.99 4.33 -2.98 4.66 -4 5 C-5.20882096 7.00016466 -5.20882096 7.00016466 -6 9 C-6.1875 5.625 -6.1875 5.625 -6 2 C-3 0 -3 0 0 0 Z " fill="#59533E" transform="translate(117,80)"/>
<path d="M0 0 C1.32 0 2.64 0 4 0 C4.33 1.32 4.66 2.64 5 4 C2.21176345 5.0326802 1.1322726 5.04509293 -1.75 4.0625 C-2.4925 3.711875 -3.235 3.36125 -4 3 C-2.68 2.67 -1.36 2.34 0 2 C0 1.34 0 0.68 0 0 Z " fill="#933DA0" transform="translate(109,45)"/>
<path d="M0 0 C-0.66 0 -1.32 0 -2 0 C-2.33 0.99 -2.66 1.98 -3 3 C-4.98 3.33 -6.96 3.66 -9 4 C-8 1 -8 1 -6.1875 -0.25 C-3.66056586 -1.11637742 -2.47778006 -0.88492145 0 0 Z " fill="#682A72" transform="translate(59,33)"/>
<path d="M0 0 C0.33 0.66 0.66 1.32 1 2 C1.66 2.33 2.32 2.66 3 3 C2.34 3 1.68 3 1 3 C1 5.64 1 8.28 1 11 C0.34 11 -0.32 11 -1 11 C-1.02688151 9.35425434 -1.04634123 7.70838587 -1.0625 6.0625 C-1.07410156 5.14597656 -1.08570312 4.22945313 -1.09765625 3.28515625 C-1 1 -1 1 0 0 Z " fill="#411C46" transform="translate(110,79)"/>
<path d="M0 0 C0 2.31 0 4.62 0 7 C-0.99 7.33 -1.98 7.66 -3 8 C-3.33 5.69 -3.66 3.38 -4 1 C-2 0 -2 0 0 0 Z " fill="#4B1F52" transform="translate(129,42)"/>
<path d="M0 0 C0.33 1.65 0.66 3.3 1 5 C-1.97 4.505 -1.97 4.505 -5 4 C-5 3.01 -5 2.02 -5 1 C-3 0 -3 0 0 0 Z " fill="#491551" transform="translate(67,42)"/>
<path d="M0 0 C0.99 0.66 1.98 1.32 3 2 C0.03 3.32 -2.94 4.64 -6 6 C-6 5.01 -6 4.02 -6 3 C-4.02 2.01 -2.04 1.02 0 0 Z " fill="#80318C" transform="translate(117,33)"/>
<path d="M0 0 C1.98 0.99 3.96 1.98 6 3 C4.75 4.5625 4.75 4.5625 3 6 C0.8125 5.6875 0.8125 5.6875 -1 5 C-0.67 3.35 -0.34 1.7 0 0 Z " fill="#BE60C5" transform="translate(108,25)"/>
<path d="M0 0 C1.98 0.66 3.96 1.32 6 2 C5.67 2.99 5.34 3.98 5 5 C4.34 5 3.68 5 3 5 C2.67 5.99 2.34 6.98 2 8 C0.74335022 5.09399739 0 3.20395416 0 0 Z " fill="#A6AA78" transform="translate(80,107)"/>
<path d="M0 0 C2.4375 0.75 2.4375 0.75 5 2 C5.8125 4.125 5.8125 4.125 6 6 C4.02 5.34 2.04 4.68 0 4 C0 2.68 0 1.36 0 0 Z " fill="#9D9871" transform="translate(71,106)"/>
<path d="M0 0 C1.98 0.99 3.96 1.98 6 3 C5.67 4.32 5.34 5.64 5 7 C2.5 5.75 2.5 5.75 0 4 C0 2.68 0 1.36 0 0 Z " fill="#6C3172" transform="translate(48,66)"/>
<path d="M0 0 C0.33 1.32 0.66 2.64 1 4 C-0.98 4.99 -2.96 5.98 -5 7 C-4.75 4.625 -4.75 4.625 -4 2 C-1.9375 0.6875 -1.9375 0.6875 0 0 Z " fill="#5D5A43" transform="translate(125,64)"/>
<path d="M0 0 C0.99 0.33 1.98 0.66 3 1 C1.70525365 3.58949269 0.67336607 3.96035764 -2 5 C-4.75 5.125 -4.75 5.125 -7 5 C-2.25 1.125 -2.25 1.125 0 0 Z " fill="#A348B2" transform="translate(59,36)"/>
<path d="M0 0 C0.99 0.33 1.98 0.66 3 1 C3 3.31 3 5.62 3 8 C2.01 7.67 1.02 7.34 0 7 C0 4.69 0 2.38 0 0 Z " fill="#B7BC8E" transform="translate(51,93)"/>
<path d="M0 0 C1.98 0.99 3.96 1.98 6 3 C6 3.99 6 4.98 6 6 C3.83125748 5.49396008 2.00032373 5.00016187 0 4 C0 2.68 0 1.36 0 0 Z " fill="#763E79" transform="translate(51,85)"/>
<path d="M0 0 C0.99 0.33 1.98 0.66 3 1 C3 3.31 3 5.62 3 8 C2.01 7.67 1.02 7.34 0 7 C0 4.69 0 2.38 0 0 Z " fill="#955092" transform="translate(80,82)"/>
<path d="M0 0 C-0.33 1.32 -0.66 2.64 -1 4 C-2.65 4.33 -4.3 4.66 -6 5 C-5.625 3.0625 -5.625 3.0625 -5 1 C-3 0 -3 0 0 0 Z " fill="#58543D" transform="translate(100,85)"/>
<path d="M0 0 C0.99 0.33 1.98 0.66 3 1 C3 3.31 3 5.62 3 8 C2.01 7.67 1.02 7.34 0 7 C0 4.69 0 2.38 0 0 Z " fill="#765566" transform="translate(77,81)"/>
<path d="M0 0 C0.99 0.33 1.98 0.66 3 1 C3 3.31 3 5.62 3 8 C1.68 7.34 0.36 6.68 -1 6 C-0.67 4.02 -0.34 2.04 0 0 Z " fill="#57245D" transform="translate(71,71)"/>
<path d="M0 0 C0.99 0.33 1.98 0.66 3 1 C3 3.31 3 5.62 3 8 C2.01 7.67 1.02 7.34 0 7 C0 4.69 0 2.38 0 0 Z " fill="#5F2468" transform="translate(74,65)"/>
<path d="M0 0 C0.99 0.33 1.98 0.66 3 1 C3 3.31 3 5.62 3 8 C2.01 7.67 1.02 7.34 0 7 C0 4.69 0 2.38 0 0 Z " fill="#904292" transform="translate(71,64)"/>
<path d="M0 0 C2.475 0.495 2.475 0.495 5 1 C5.33 2.65 5.66 4.3 6 6 C4.02 5.01 2.04 4.02 0 3 C0 2.01 0 1.02 0 0 Z " fill="#8E8968" transform="translate(54,63)"/>
<path d="M0 0 C0.66 0 1.32 0 2 0 C3.125 7.75 3.125 7.75 2 10 C1.34 10 0.68 10 0 10 C0 6.7 0 3.4 0 0 Z " fill="#999968" transform="translate(43,54)"/>
<path d="M0 0 C0.66 0 1.32 0 2 0 C2 2.31 2 4.62 2 7 C1.01 7.33 0.02 7.66 -1 8 C-1.04241723 5.66705225 -1.04092937 3.33297433 -1 1 C-0.67 0.67 -0.34 0.34 0 0 Z " fill="#5F2B61" transform="translate(118,57)"/>
<path d="M0 0 C0.66 0 1.32 0 2 0 C2 2.31 2 4.62 2 7 C1.01 7.33 0.02 7.66 -1 8 C-1.04241723 5.66705225 -1.04092937 3.33297433 -1 1 C-0.67 0.67 -0.34 0.34 0 0 Z " fill="#290C2E" transform="translate(124,54)"/>
<path d="M0 0 C0.99 0.33 1.98 0.66 3 1 C3 3.31 3 5.62 3 8 C2.01 7.67 1.02 7.34 0 7 C0 4.69 0 2.38 0 0 Z " fill="#401347" transform="translate(57,53)"/>
<path d="M0 0 C2.625 0.9375 2.625 0.9375 5 2 C5 2.66 5 3.32 5 4 C2.69 4.33 0.38 4.66 -2 5 C-1.34 4.67 -0.68 4.34 0 4 C0 3.34 0 2.68 0 2 C-0.66 1.67 -1.32 1.34 -2 1 C-1.34 0.67 -0.68 0.34 0 0 Z " fill="#7B2F88" transform="translate(68,46)"/>
<path d="M0 0 C2.475 0.99 2.475 0.99 5 2 C3.75 3.5 3.75 3.5 2 5 C0.68 5 -0.64 5 -2 5 C-1.34 3.35 -0.68 1.7 0 0 Z " fill="#A94CB8" transform="translate(100,45)"/>
<path d="M0 0 C1.65 0 3.3 0 5 0 C4.525625 0.61875 4.05125 1.2375 3.5625 1.875 C1.97582559 3.90705546 1.97582559 3.90705546 1 6 C0.01 5.67 -0.98 5.34 -2 5 C-1.34 3.35 -0.68 1.7 0 0 Z " fill="#782D84" transform="translate(80,34)"/>
<path d="M0 0 C0.33 1.32 0.66 2.64 1 4 C-0.98 4.66 -2.96 5.32 -5 6 C-5 5.01 -5 4.02 -5 3 C-2.5 1.3125 -2.5 1.3125 0 0 Z " fill="#59563E" transform="translate(96,75)"/>
<path d="M0 0 C0.99 0.33 1.98 0.66 3 1 C3 1.99 3 2.98 3 4 C2.34 4 1.68 4 1 4 C0.67 4.66 0.34 5.32 0 6 C-0.99 5.67 -1.98 5.34 -3 5 C-3 4.01 -3 3.02 -3 2 C-2.01 2 -1.02 2 0 2 C0 1.34 0 0.68 0 0 Z " fill="#602C66" transform="translate(80,72)"/>
<path d="M0 0 C2.4375 0.75 2.4375 0.75 5 2 C5.8125 4.125 5.8125 4.125 6 6 C4.02 5.01 2.04 4.02 0 3 C0 2.01 0 1.02 0 0 Z " fill="#857F5B" transform="translate(48,70)"/>
<path d="M0 0 C0.99 0 1.98 0 3 0 C3 1.98 3 3.96 3 6 C2.01 6.33 1.02 6.66 0 7 C0 4.69 0 2.38 0 0 Z " fill="#633461" transform="translate(126,67)"/>
<path d="M0 0 C0.99 0.33 1.98 0.66 3 1 C3 2.32 3 3.64 3 5 C3.66 5 4.32 5 5 5 C4.67 6.32 4.34 7.64 4 9 C1.18167487 7.59083743 0.97406539 5.92219617 0 3 C0 2.01 0 1.02 0 0 Z " fill="#9C4A98" transform="translate(63,60)"/>
<path d="M0 0 C-1.32 0.33 -2.64 0.66 -4 1 C-4 1.66 -4 2.32 -4 3 C-5.65 3 -7.3 3 -9 3 C-8.67 2.01 -8.34 1.02 -8 0 C-4.71023192 -1.09658936 -3.28696233 -0.79953138 0 0 Z " fill="#71297C" transform="translate(113,44)"/>
<path d="M0 0 C2.475 0.99 2.475 0.99 5 2 C4.67 3.32 4.34 4.64 4 6 C1.525 5.01 1.525 5.01 -1 4 C-0.67 2.68 -0.34 1.36 0 0 Z " fill="#847A5C" transform="translate(83,73)"/>
<path d="M0 0 C1.98 0.66 3.96 1.32 6 2 C6 2.99 6 3.98 6 5 C4.02 4.34 2.04 3.68 0 3 C0 2.01 0 1.02 0 0 Z " fill="#AAAE7F" transform="translate(45,62)"/>
<path d="M0 0 C0.33 0.99 0.66 1.98 1 3 C0.01 3.33 -0.98 3.66 -2 4 C-2 5.32 -2 6.64 -2 8 C-2.66 8 -3.32 8 -4 8 C-4.25 5.6875 -4.25 5.6875 -4 3 C-2 1.1875 -2 1.1875 0 0 Z " fill="#34123A" transform="translate(93,60)"/>
<path d="M0 0 C0.99 0.33 1.98 0.66 3 1 C3 1.99 3 2.98 3 4 C2.34 4 1.68 4 1 4 C1 4.66 1 5.32 1 6 C0.01 6 -0.98 6 -2 6 C-2 5.01 -2 4.02 -2 3 C-1.34 3 -0.68 3 0 3 C0 2.01 0 1.02 0 0 Z " fill="#4B1954" transform="translate(68,52)"/>
<path d="M0 0 C0.99 0.33 1.98 0.66 3 1 C3 1.99 3 2.98 3 4 C2.34 4 1.68 4 1 4 C1 4.66 1 5.32 1 6 C0.01 6 -0.98 6 -2 6 C-2 5.01 -2 4.02 -2 3 C-1.34 3 -0.68 3 0 3 C0 2.01 0 1.02 0 0 Z " fill="#763180" transform="translate(62,49)"/>
<path d="M0 0 C0.66 0.33 1.32 0.66 2 1 C1.67 1.99 1.34 2.98 1 4 C-0.875 4.8125 -0.875 4.8125 -3 5 C-3.99 4.34 -4.98 3.68 -6 3 C-4.03533587 1.93224776 -2.03144641 0.93446535 0 0 Z " fill="#8A4295" transform="translate(77,21)"/>
<path d="M0 0 C0.33 1.32 0.66 2.64 1 4 C-0.65 4.66 -2.3 5.32 -4 6 C-3.67 4.35 -3.34 2.7 -3 1 C-2.01 0.67 -1.02 0.34 0 0 Z " fill="#6A6C4A" transform="translate(116,83)"/>
<path d="M0 0 C2.97 0.495 2.97 0.495 6 1 C6 1.66 6 2.32 6 3 C3.69 3 1.38 3 -1 3 C-0.67 2.01 -0.34 1.02 0 0 Z " fill="#ABABAB" transform="translate(238,70)"/>
<path d="M0 0 C0 1.32 0 2.64 0 4 C-1.65 4.33 -3.3 4.66 -5 5 C-4.625 3.0625 -4.625 3.0625 -4 1 C-2 0 -2 0 0 0 Z " fill="#2E1530" transform="translate(134,71)"/>
<path d="M0 0 C0.66 1.32 1.32 2.64 2 4 C0.02 4.33 -1.96 4.66 -4 5 C-4 4.01 -4 3.02 -4 2 C-2.68 1.34 -1.36 0.68 0 0 Z " fill="#411948" transform="translate(101,55)"/>
<path d="M0 0 C0.33 0 0.66 0 1 0 C1 3.63 1 7.26 1 11 C-0.32 10.34 -1.64 9.68 -3 9 C-2.67 8.34 -2.34 7.68 -2 7 C-1.34 7 -0.68 7 0 7 C0 4.69 0 2.38 0 0 Z " fill="#7A3582" transform="translate(56,49)"/>
<path d="M0 0 C0.33 1.32 0.66 2.64 1 4 C-0.65 4.66 -2.3 5.32 -4 6 C-4 4.68 -4 3.36 -4 2 C-2.68 1.34 -1.36 0.68 0 0 Z " fill="#58513D" transform="translate(133,53)"/>
<path d="M0 0 C0.66 0 1.32 0 2 0 C2.33 0.99 2.66 1.98 3 3 C1.68 3.33 0.36 3.66 -1 4 C-1 4.66 -1 5.32 -1 6 C-1.66 5.67 -2.32 5.34 -3 5 C-1.125 1.125 -1.125 1.125 0 0 Z " fill="#AB4DB6" transform="translate(93,41)"/>
<path d="M0 0 C2.35981813 0.93578995 4.69631264 1.93347808 7 3 C7 3.33 7 3.66 7 4 C1.46153846 4.36923077 1.46153846 4.36923077 -0.875 2.5 C-1.24625 2.005 -1.6175 1.51 -2 1 C-1.34 0.67 -0.68 0.34 0 0 Z " fill="#AD56BB" transform="translate(117,30)"/>
<path d="M0 0 C0.66 0.33 1.32 0.66 2 1 C1.67 1.33 1.34 1.66 1 2 C1.99 2.33 2.98 2.66 4 3 C4 3.66 4 4.32 4 5 C1.03 4.505 1.03 4.505 -2 4 C-2 3.01 -2 2.02 -2 1 C-1.34 0.67 -0.68 0.34 0 0 Z " fill="#732F7E" transform="translate(81,19)"/>
<path d="M0 0 C2.475 0.495 2.475 0.495 5 1 C4.67 2.32 4.34 3.64 4 5 C2.68 4.34 1.36 3.68 0 3 C0 2.01 0 1.02 0 0 Z " fill="#8A8762" transform="translate(83,95)"/>
<path d="M0 0 C0.33 1.32 0.66 2.64 1 4 C-0.65 4.66 -2.3 5.32 -4 6 C-3.6875 4.125 -3.6875 4.125 -3 2 C-2.01 1.34 -1.02 0.68 0 0 Z " fill="#767A59" transform="translate(113,91)"/>
<path d="M0 0 C2.475 0.99 2.475 0.99 5 2 C5 2.99 5 3.98 5 5 C2.525 4.01 2.525 4.01 0 3 C0 2.01 0 1.02 0 0 Z " fill="#823C8B" transform="translate(83,70)"/>
<path d="M0 0 C-0.33 1.32 -0.66 2.64 -1 4 C-2.32 4.33 -3.64 4.66 -5 5 C-4.625 3.0625 -4.625 3.0625 -4 1 C-2 0 -2 0 0 0 Z " fill="#747758" transform="translate(117,69)"/>
<path d="M0 0 C0.99 0 1.98 0 3 0 C3 3.3 3 6.6 3 10 C2.67 10 2.34 10 2 10 C1.7834375 8.63875 1.7834375 8.63875 1.5625 7.25 C1.13590527 4.78523044 0.64925779 2.41152893 0 0 Z " fill="#522458" transform="translate(100,59)"/>
<path d="M0 0 C0.99 0.66 1.98 1.32 3 2 C3 3.32 3 4.64 3 6 C2.34 6 1.68 6 1 6 C1 5.34 1 4.68 1 4 C0.01 4 -0.98 4 -2 4 C-2 3.01 -2 2.02 -2 1 C-1.34 0.67 -0.68 0.34 0 0 Z " fill="#6A3266" transform="translate(99,60)"/>
<path d="M0 0 C4.75 0.875 4.75 0.875 7 2 C6.67 2.99 6.34 3.98 6 5 C5.34 5 4.68 5 4 5 C4 4.01 4 3.02 4 2 C2.35 2 0.7 2 -1 2 C-0.67 1.34 -0.34 0.68 0 0 Z " fill="#AB4CAE" transform="translate(73,52)"/>
<path d="M0 0 C-0.33 1.32 -0.66 2.64 -1 4 C-2.32 4.33 -3.64 4.66 -5 5 C-4.625 3.0625 -4.625 3.0625 -4 1 C-2 0 -2 0 0 0 Z " fill="#55275C" transform="translate(134,50)"/>
<path d="M0 0 C2.375 -0.1875 2.375 -0.1875 5 0 C5.66 0.99 6.32 1.98 7 3 C5.02 3 3.04 3 1 3 C0.67 2.01 0.34 1.02 0 0 Z " fill="#70287B" transform="translate(104,48)"/>
<path d="M0 0 C2 3.75 2 3.75 2 6 C0.68 6 -0.64 6 -2 6 C-1.125 1.125 -1.125 1.125 0 0 Z " fill="#8E3B9C" transform="translate(103,48)"/>
<path d="M0 0 C1.32 0.33 2.64 0.66 4 1 C4 2.32 4 3.64 4 5 C3.01 5.33 2.02 5.66 1 6 C0.67 4.02 0.34 2.04 0 0 Z " fill="#592361" transform="translate(116,45)"/>
<path d="M0 0 C1.65 0 3.3 0 5 0 C4.67 1.32 4.34 2.64 4 4 C2.68 3.67 1.36 3.34 0 3 C0 2.01 0 1.02 0 0 Z " fill="#722A7E" transform="translate(57,40)"/>
<path d="M0 0 C1.65 0 3.3 0 5 0 C5 2 5 2 3.625 3.625 C2 5 2 5 0 5 C0 3.35 0 1.7 0 0 Z " fill="#63266D" transform="translate(43,38)"/>
<path d="M0 0 C-0.8125 1.9375 -0.8125 1.9375 -2 4 C-2.99 4.33 -3.98 4.66 -5 5 C-5 3.68 -5 2.36 -5 1 C-2 0 -2 0 0 0 Z " fill="#CF62CA" transform="translate(119,36)"/>
<path d="M0 0 C2.97 0.495 2.97 0.495 6 1 C6 1.99 6 2.98 6 4 C4.02 3.34 2.04 2.68 0 2 C0 1.34 0 0.68 0 0 Z " fill="#893696" transform="translate(61,35)"/>
<path d="M0 0 C0.99 0 1.98 0 3 0 C3 1.65 3 3.3 3 5 C2.01 5.495 2.01 5.495 1 6 C0.34 5.67 -0.32 5.34 -1 5 C-0.67 3.35 -0.34 1.7 0 0 Z " fill="#772C82" transform="translate(102,29)"/>
<path d="M0 0 C0.99 0.33 1.98 0.66 3 1 C1.25 5.875 1.25 5.875 -1 7 C-1.33 6.01 -1.66 5.02 -2 4 C-1.34 4 -0.68 4 0 4 C0 3.34 0 2.68 0 2 C-0.66 1.67 -1.32 1.34 -2 1 C-1.34 0.67 -0.68 0.34 0 0 Z " fill="#8D3999" transform="translate(94,30)"/>
<path d="M0 0 C-1.32 0.99 -2.64 1.98 -4 3 C-5.32 2.34 -6.64 1.68 -8 1 C-4.93251126 -0.86240388 -3.40254489 -1.2151946 0 0 Z " fill="#80338D" transform="translate(117,30)"/>
<path d="M0 0 C1.65 0 3.3 0 5 0 C5.33 1.32 5.66 2.64 6 4 C4.68 4.33 3.36 4.66 2 5 C1.67 4.34 1.34 3.68 1 3 C1.33 2.34 1.66 1.68 2 1 C1.34 0.67 0.68 0.34 0 0 Z " fill="#913B9D" transform="translate(103,28)"/>
</svg>
